<?xml version="1.0" encoding="UTF-8" standalone="no"?>
<!-- Created with Inkscape (http://www.inkscape.org/) -->

<svg
   width="3840"
   height="2160"
   viewBox="0 0 1016 571.5"
   version="1.1"
   id="svg5"
   inkscape:version="1.2.2 (b0a8486541, 2022-12-01)"
   sodipodi:docname="Debian.svg"
   xml:space="preserve"
   xmlns:inkscape="http://www.inkscape.org/namespaces/inkscape"
   xmlns:sodipodi="http://sodipodi.sourceforge.net/DTD/sodipodi-0.dtd"
   xmlns:xlink="http://www.w3.org/1999/xlink"
   xmlns="http://www.w3.org/2000/svg"
   xmlns:svg="http://www.w3.org/2000/svg"
   xmlns:i="http://ns.adobe.com/AdobeIllustrator/10.0/"><sodipodi:namedview
     id="namedview7"
     pagecolor="#ffffff"
     bordercolor="#000000"
     borderopacity="0.25"
     inkscape:showpageshadow="2"
     inkscape:pageopacity="1"
     inkscape:pagecheckerboard="0"
     inkscape:deskcolor="#d1d1d1"
     inkscape:document-units="mm"
     showgrid="false"
     inkscape:zoom="0.35355339"
     inkscape:cx="1651.8014"
     inkscape:cy="1343.5029"
     inkscape:window-width="1920"
     inkscape:window-height="1011"
     inkscape:window-x="0"
     inkscape:window-y="0"
     inkscape:window-maximized="1"
     inkscape:current-layer="layer1" /><defs
     id="defs2"><linearGradient
       inkscape:collect="always"
       id="linearGradient521"><stop
         style="stop-color:#a500cd;stop-opacity:1;"
         offset="0"
         id="stop517" /><stop
         style="stop-color:#04efff;stop-opacity:1;"
         offset="1"
         id="stop519" /></linearGradient><rect
       x="1562.9503"
       y="438.06922"
       width="19.060208"
       height="17.420791"
       id="rect403" /><rect
       x="1371.4062"
       y="181.25"
       width="1561.6562"
       height="1252.0938"
       id="rect397" /><linearGradient
       inkscape:collect="always"
       id="linearGradient2468"><stop
         style="stop-color:#e100f5;stop-opacity:1;"
         offset="0"
         id="stop2464" /><stop
         style="stop-color:#12ccff;stop-opacity:1;"
         offset="1"
         id="stop2466" /></linearGradient><rect
       x="61.410225"
       y="144.73344"
       width="272.80177"
       height="247.53566"
       id="rect1516" /><linearGradient
       inkscape:collect="always"
       xlink:href="#linearGradient2468"
       id="linearGradient2470"
       x1="61.410156"
       y1="146.23438"
       x2="221.83398"
       y2="395.35156"
       gradientUnits="userSpaceOnUse" /><linearGradient
       inkscape:collect="always"
       xlink:href="#linearGradient521"
       id="linearGradient523"
       x1="1404.7922"
       y1="202.07999"
       x2="1562.9503"
       y2="432.16849"
       gradientUnits="userSpaceOnUse" /></defs><g
     inkscape:label="Laag 1"
     inkscape:groupmode="layer"
     id="layer1"><rect
       style="fill:#161616;stroke-width:0.264583;fill-opacity:1"
       id="rect4841"
       width="1016"
       height="571.5"
       x="0"
       y="0" /><text
       xml:space="preserve"
       transform="matrix(1.7515067,0,0,1.7515067,254.88334,-222.98839)"
       id="text1514"
       style="white-space:pre;shape-inside:url(#rect1516);display:inline;fill:url(#linearGradient2470);fill-opacity:1" /><g
       style="overflow:visible;fill:#ffffff;stroke:#000000"
       id="g6134"
       transform="matrix(2.2629331,0,0,2.2629331,384.94396,464.07357)"><g
         id="Layer_1"
         i:layer="yes"
         i:dimmedPercent="50"
         i:rgbTrio="#4F008000FFFF"
         style="fill:#ffffff;stroke-width:0;stroke-dasharray:none"
         transform="translate(5e-7,-107.697)">
		<g
   id="g4884"
   style="fill:#ffffff;stroke-width:0;stroke-dasharray:none">
			
			
			
			
			
			
			
			
			
			
			
			
			<path
   i:knockout="Off"
   d="m 13.437,125.506 c -0.045,0.047 -0.045,7.506 -0.138,9.453 -0.092,1.574 -0.232,4.957 -3.568,4.957 -3.429,0 -4.263,-3.939 -4.541,-5.652 -0.324,-1.9 -0.324,-3.477 -0.324,-4.17 0,-2.225 0.139,-8.436 5.375,-8.436 1.576,0 2.456,0.465 3.151,0.834 z M 0,130.975 c 0,13.066 6.951,13.066 7.97,13.066 2.873,0 4.727,-1.576 5.514,-4.309 l 0.093,4.123 c 0.881,-0.047 1.761,-0.139 3.197,-0.139 0.51,0 0.926,0 1.298,0.047 0.371,0 0.741,0.045 1.158,0.092 -0.741,-1.482 -1.297,-4.818 -1.297,-12.049 0,-7.043 0,-18.951 0.602,-22.566 -1.667,0.789 -3.105,1.299 -6.256,1.576 1.251,1.344 1.251,2.039 1.251,8.154 -0.879,-0.277 -1.992,-0.602 -3.892,-0.602 C 1.344,118.369 0,125.598 0,130.975"
   id="path4870"
   style="fill:#ffffff;stroke-width:0;stroke-dasharray:none" />
			<path
   i:knockout="Off"
   d="m 25.13,128.609 c 0.047,-3.846 0.835,-7.275 4.124,-7.275 3.615,0 3.891,3.984 3.799,7.275 z m 12.51,0.465 c 0,-5.422 -1.065,-10.752 -7.923,-10.752 -9.452,0 -9.452,10.475 -9.452,12.697 0,9.406 4.216,13.113 11.306,13.113 3.149,0 4.68,-0.461 5.514,-0.695 -0.046,-1.668 0.185,-2.734 0.465,-4.17 -0.975,0.604 -2.226,1.391 -5.006,1.391 -7.229,0 -7.322,-6.582 -7.322,-8.852 H 37.55 l 0.09,-2.732"
   id="path4872"
   style="fill:#ffffff;stroke-width:0;stroke-dasharray:none" />
			<path
   i:knockout="Off"
   d="m 52.715,131.066 c 0,4.309 -0.787,10.102 -6.162,10.102 -0.742,0 -1.668,-0.141 -2.27,-0.279 -0.093,-1.668 -0.093,-4.541 -0.093,-7.877 0,-3.986 0.416,-6.068 0.742,-7.09 0.972,-3.289 3.15,-3.334 3.566,-3.334 3.522,0 4.217,4.865 4.217,8.478 z m -13.298,5.051 c 0,3.43 0,5.375 -0.556,6.857 1.9,0.742 4.262,1.158 7.09,1.158 1.807,0 7.043,0 9.869,-5.791 1.344,-2.688 1.807,-6.303 1.807,-9.037 0,-1.668 -0.186,-5.328 -1.529,-7.646 -1.296,-2.176 -3.382,-3.289 -5.605,-3.289 -4.449,0 -5.746,3.707 -6.44,5.607 0,-2.363 0.045,-10.611 0.415,-14.828 -3.011,1.391 -4.866,1.621 -6.857,1.807 1.807,0.74 1.807,3.801 1.807,13.764 v 11.398"
   id="path4874"
   style="fill:#ffffff;stroke-width:0;stroke-dasharray:none" />
			<path
   i:knockout="Off"
   d="m 66.535,143.855 c -0.928,-0.139 -1.578,-0.232 -2.922,-0.232 -1.48,0 -2.502,0.094 -3.566,0.232 0.463,-0.881 0.648,-1.299 0.787,-4.309 0.186,-4.125 0.232,-15.154 -0.092,-17.471 -0.232,-1.762 -0.648,-2.039 -1.297,-2.502 3.799,-0.371 4.865,-0.648 6.625,-1.482 -0.369,2.037 -0.418,3.059 -0.418,6.162 -0.091,15.989 -0.138,17.702 0.883,19.602"
   id="path4876"
   style="fill:#ffffff;stroke-width:0;stroke-dasharray:none" />
			<path
   i:knockout="Off"
   d="m 81.373,130.74 c -0.092,2.92 -0.139,4.959 -0.928,6.58 -0.973,2.086 -2.594,2.688 -3.799,2.688 -2.783,0 -3.383,-2.316 -3.383,-4.586 0,-4.355 3.893,-4.682 5.652,-4.682 z m -12.744,5.701 c 0,2.92 0.881,5.838 3.477,7.09 1.158,0.51 2.316,0.51 2.688,0.51 4.264,0 5.699,-3.152 6.58,-5.098 -0.047,2.039 0,3.289 0.139,4.912 0.834,-0.047 1.668,-0.139 3.059,-0.139 0.787,0 1.529,0.092 2.316,0.139 -0.51,-0.787 -0.787,-1.252 -0.928,-3.059 -0.092,-1.76 -0.092,-3.521 -0.092,-5.977 l 0.047,-9.453 c 0,-3.523 -0.928,-6.998 -7.879,-6.998 -4.586,0 -7.273,1.391 -8.617,2.086 0.557,1.02 1.02,1.898 1.436,3.893 1.809,-1.576 4.172,-2.41 6.58,-2.41 3.848,0 3.848,2.549 3.848,6.162 -0.881,-0.045 -1.623,-0.137 -2.875,-0.137 -5.887,10e-4 -9.779,2.268 -9.779,8.479"
   id="path4878"
   style="fill:#ffffff;stroke-width:0;stroke-dasharray:none" />
			<path
   i:knockout="Off"
   d="m 108.063,139.268 c 0.047,1.576 0.047,3.244 0.695,4.588 -1.021,-0.092 -1.623,-0.232 -3.521,-0.232 -1.113,0 -1.715,0.094 -2.596,0.232 0.184,-0.602 0.279,-0.834 0.371,-1.623 0.139,-1.064 0.232,-4.633 0.232,-5.885 v -5.004 c 0,-2.178 0,-5.33 -0.141,-6.441 -0.092,-0.787 -0.322,-2.918 -3.012,-2.918 -2.641,0 -3.521,1.945 -3.846,3.521 -0.369,1.621 -0.369,3.383 -0.369,10.24 0.045,5.932 0.045,6.486 0.508,8.109 -0.787,-0.092 -1.76,-0.184 -3.15,-0.184 -1.113,0 -1.854,0.045 -2.779,0.184 0.324,-0.742 0.51,-1.113 0.602,-3.707 0.094,-2.549 0.279,-15.061 -0.141,-18.025 -0.23,-1.809 -0.695,-2.225 -1.203,-2.688 3.754,-0.186 4.957,-0.789 6.117,-1.389 v 4.91 c 0.555,-1.438 1.713,-4.635 6.348,-4.635 5.793,0 5.838,4.217 5.885,6.996 v 13.951"
   id="path4880"
   style="fill:#ffffff;stroke-width:0;stroke-dasharray:none" />
			<path
   i:knockout="Off"
   fill="#a80030"
   d="m 66.926,111.533 -3.838,3.836 -3.836,-3.836 3.836,-3.836 3.838,3.836"
   id="path4882"
   style="fill:#a80030;fill-opacity:1;stroke-width:0;stroke-dasharray:none" />
		</g>
	</g></g><text
       xml:space="preserve"
       transform="matrix(1.6307056,0,0,1.6307056,-1884.5359,-250.08302)"
       id="text395"
       style="font-family:monospace;-inkscape-font-specification:monospace;white-space:pre;shape-inside:url(#rect397);fill:url(#linearGradient523);fill-opacity:1;stroke-width:0"><tspan
         x="1371.4062"
         y="192.1685"
         id="tspan929">       _,met$$$$$gg.       
</tspan><tspan
         x="1371.4062"
         y="207.1685"
         id="tspan931">    ,g$$$$$$$$$$$$$$$P.    
</tspan><tspan
         x="1371.4062"
         y="222.1685"
         id="tspan933">  ,g$$P&quot;     &quot;&quot;&quot;Y$$.&quot;.     
</tspan><tspan
         x="1371.4062"
         y="237.1685"
         id="tspan935"> ,$$P'              `$$$.  
</tspan><tspan
         x="1371.4062"
         y="252.1685"
         id="tspan937">',$$P       ,ggs.     `$$b:
</tspan><tspan
         x="1371.4062"
         y="267.1685"
         id="tspan939">`d$$'     ,$P&quot;'   .    $$$ 
</tspan><tspan
         x="1371.4062"
         y="282.1685"
         id="tspan941"> $$P      d$'     ,    $$P 
</tspan><tspan
         x="1371.4062"
         y="297.1685"
         id="tspan943"> $$:      $$.   -    ,d$$' 
</tspan><tspan
         x="1371.4062"
         y="312.1685"
         id="tspan945"> $$;      Y$b._   _,d$P'   
</tspan><tspan
         x="1371.4062"
         y="327.1685"
         id="tspan947"> Y$$.    `.`&quot;Y$$$$P&quot;'      
</tspan><tspan
         x="1371.4062"
         y="342.1685"
         id="tspan949"> `$$b      &quot;-.__           
</tspan><tspan
         x="1371.4062"
         y="357.1685"
         id="tspan951">  `Y$$                     
</tspan><tspan
         x="1371.4062"
         y="372.1685"
         id="tspan953">   `Y$$.                   
</tspan><tspan
         x="1371.4062"
         y="387.1685"
         id="tspan955">     `$$b.                 
</tspan><tspan
         x="1371.4062"
         y="402.1685"
         id="tspan957">       `Y$$b.              
</tspan><tspan
         x="1371.4062"
         y="417.1685"
         id="tspan959">          `&quot;Y$b._          
</tspan><tspan
         x="1371.4062"
         y="432.1685"
         id="tspan961">              `&quot;&quot;&quot;         </tspan></text><text
       xml:space="preserve"
       transform="scale(0.26458333)"
       id="text401"
       style="fill:#a80030;stroke-width:0;-inkscape-font-specification:monospace;font-family:monospace;white-space:pre;shape-inside:url(#rect403)" /></g></svg>
