<svg width="1920" height="1080" version="1.1" viewBox="0 0 508 285.75" xmlns="http://www.w3.org/2000/svg" xmlns:xlink="http://www.w3.org/1999/xlink" xmlns:dc="http://purl.org/dc/elements/1.1/" xmlns:cc="http://creativecommons.org/ns#" xmlns:rdf="http://www.w3.org/1999/02/22-rdf-syntax-ns#" xmlns:svg="http://www.w3.org/2000/svg" stroke="rgb(0, 0, 0)" fill="rgb(0, 0, 0)">
	<defs>
		<radialGradient id="radialGradient974" cx="255.1" cy="155.4" r="254" gradientTransform="matrix(1.055 0 0 .75745 -13.636 25.851)" gradientUnits="userSpaceOnUse">
			<stop style="stop-color:#1d010b;stop-opacity:0" offset="0"/>
			<stop style="stop-opacity:.861" offset="1"/>
		</radialGradient>
	</defs>
	<rect id="solid" x="1.3731e-6" y="8.661e-6" width="508" height="285.75" style="fill:#d70751">
		<animate attributeType="XML" attributeName="fill" from="#d70707ff" to="#d70707ff" values="#d70707ff; #cbd707ff; #09d707ff; #07cbd7ff; #0d07d7ff; #d707cbff; #d70707ff;" keyTimes="0; 0.12; 0.35; 0.5; 0.65; 0.88; 1" dur="60s" repeatCount="indefinite"/>
	</rect>
	<rect id="gradient" x="1.3731e-6" y="8.661e-6" width="508" height="285.75" style="fill:url(#radialGradient974)"/>
	<path id="spiral" d="m84.751-25.473c-12.711 12.172-39.793 31.842-42.178 45.146l-2.653 0.59492c-5.1642 8.4023-8.5043 17.924-12.6 26.57-6.7539 11.059-9.8993 4.255-8.9387 5.9889-13.283 25.882-19.881 47.631-25.582 65.466 4.0621 5.8343 0.097693 35.122 1.6338 58.563-2.4442 42.417 8.2542 84.381 27.695 121.81 3.0157-0.86275 6.359-1.3142 9.9895-1.273 7.7356 0.0878 16.771 2.4072 26.695 7.7225 3.1176 1.6697 4.2195 2.3451 5.4771 2.9345l2.6894-2.9545c-7.6414-9.4474-14.063-21.557-13.576-25.591 4.0767 5.2907 6.9051 6.2796 9.7042 7.184-19.296-46.009-20.379-2.5349-34.994-46.833l3.0917-0.23942c-2.37-3.4303-3.8084-7.1557-5.7151-10.811l1.3456-12.887c-13.893-15.436-3.8865-65.635-1.8823-93.166 1.3898-11.195 11.596-23.112 19.36-41.801l-4.7303-0.78272c9.0409-15.155 51.622-60.864 71.342-58.511 9.5529-11.533-1.8968-0.04244-3.7645-2.9479 20.983-20.867 27.581-14.743 41.742-18.496 15.273-8.7116-13.108 3.3975-5.8661-3.3225 17.132-4.2055 19.916-9.1555 29.165-13.013-1.2771 0.06574-2.5545 0.126-3.8324 0.17107-2.4347 0.08587-4.8725 0.0174-7.3087 0.0062-6.8658-0.03154-13.73-0.15959-20.595-0.19448-7.9507 0.0073-15.901 0.05486-23.852 0.04396-0.0603-1.46e-4 -0.19226 0.0023-0.27141 0.0029-1.5005 0.2945-3.0017 0.58185-4.5171 0.77985-1.9734 0.25784-5.1819 0.05099-7.239-0.03537-0.73555-0.0725-0.88504-0.08878-1.3671-0.13714-0.0959 0.0067-0.18346 0.01292-0.27238 0.01912 0.0362 0.0078 0.0717 0.01579 0.0883 0.02246 0.22346 0.08923-0.96154 0.0387-0.72155 0.0215 0.14067-0.01004 0.42647-0.02958 0.63315-0.04396-0.0179-0.0038-0.0345-0.0078-0.0564-0.01194-0.4055 0.03051-0.81097 0.06158-1.2166 0.08984-0.36069 3e-3 -0.72163 0.0064-1.0823 0.0096-15.257 0.12962-18.398-3.9908-15.841-10.092zm18.14 9.9928c0.0769-0.0058 0.15389-0.01144 0.23081-0.0172-0.55971-0.05625-1.3806-0.13747-1.6438-0.16486 0.45409 0.04906 1.096 0.1221 1.413 0.18206zm0.23081-0.0172c0.0334 0.0034 0.0634 0.0065 0.0979 0.01004 1.1495-0.07978 2.5978-0.17938 1.8722-0.14097-0.65725 0.03479-1.3138 0.08181-1.9702 0.13093zm253.01-3.6384c-4.2008 13.78-20.642 21.594-41.778 12.766-3.9368-0.0033-7.8738-0.02012-11.811 0.0129-0.68689 0.0061-1.2273 0.01039-1.7408 0.0105-1.6359 0.17365-3.1334 0.29166-5.0586 0.21408-1.3365-0.05386-2.5704-0.14324-3.7612-0.26138 34.021 18.659 69.588 63.181 71.079 105.23l1.8091 0.46876c-0.91672 17.817 2.8382 38.422-3.667 57.349l4.4278-8.9602c0.52173 13.618-4.145 20.226-8.3534 31.922l-7.5735 3.6364c-6.1979 11.565 0.59994 7.3433-3.8376 16.542-9.6749 8.2664-29.361 25.868-35.661 27.475-4.5984-0.0984 3.1159-5.2161 4.1253-7.2218-12.952 8.5476-10.392 12.831-30.2 18.023l-0.58057-1.2372c-48.852 22.086-116.71-21.683-115.82-81.403-0.52179 3.7911-1.4826 2.8447-2.5651 4.3771-0.83902-10.226 0.51842-20.466 3.7746-30.044 1.3469-2.4203 2.866-5.1334 4.2127-8.3753l-0.74114-0.12281c0.95846-1.9942 2.0043-3.9463 3.1333-5.8503 6.6052-7.7205 18.154-18.467 24.248-17.74 3.8205-4.6123-0.75828-0.0169-1.5052-1.1789 8.3919-8.3456 11.03-5.8964 16.694-7.3976 6.1082-3.484-5.2419 1.3591-2.3458-1.3284 10.559-2.592 7.4831-5.8922 21.258-7.2079 1.4529 0.79465-3.3724 1.2276-4.5836 2.2583 8.7976-4.1362 27.84-3.1957 40.208 2.2956 14.352 6.4452 30.477 25.498 31.112 43.424l0.72345 0.18731c-0.36664 7.1255 1.1351 15.366-1.4665 22.936l1.7709-3.5834c0.20868 5.4463-1.6576 8.0889-3.3407 12.767l-3.0291 1.4541c-2.4788 4.6254 0.23987 2.9369-1.5348 6.6158-0.4685 0.40027-1.1291 0.97144-1.6983 1.4632 0.81357-1.4162 1.465-2.7262 1.726-3.7492-2.2188 2.6836-3.9147 4.8918-5.1895 6.7172-3.5856 3.035-7.4658 6.1401-9.1002 6.5571-1.8391-0.0393 1.2463-2.086 1.65-2.8881-5.1799 3.4184-4.1563 5.1313-12.078 7.2079l-0.23174-0.49456c-15.223 6.8821-35.059-2.2256-42.91-17.881-0.0253-0.12637-0.0353-0.23558-0.0253-0.32063 0.62025 0.83759 1.0503 0.99411 1.4761 1.1373-1.3534-3.358-2.1161-3.7021-2.7648-3.7879-1.3986-3.6424-2.1585-7.5779-2.0968-11.704-0.20866 1.5162-0.59301 1.1375-1.026 1.7504-1.0083-12.289 5.9053-24.632 17.566-29.671 9.0858-4.3224 19.417-3.7846 27.374 0.31059 3.5391 3.5272 6.4178 8.5464 6.5819 13.362l0.27524 0.0746c-0.13948 2.8206 0.43154 6.0827-0.55813 9.0792l0.67376-1.4187c0.0794 2.1559-0.63035 3.202-1.2706 5.0538l-1.1526 0.5758c-0.94293 1.831 0.0916 1.1623-0.58349 2.6186-1.4719 1.3087-4.467 4.0954-5.4255 4.3499-0.69964-0.0156 0.47381-0.82597 0.6274-1.1435-1.9704 1.3532-1.581 2.0312-4.5945 2.8532l-0.088-0.19544c-2.5224 1.1867-5.3775 1.1696-8.0441 0.26329 0.50348 0.0355 1.0322 0.0399 1.5186 0.054-1.144-0.32713-1.2916-0.17343-2.406-0.56196-0.80388-0.37854-0.98033-0.81037-1.5497-1.3045l0.22554 0.39806c-1.1167-0.39517-0.6493-0.48925-1.5578-0.77699l0.24035-0.31395c-0.36191-0.0273-0.95833-0.61025-1.1215-0.93277l-0.39612 0.0157c-0.47574-0.58699-0.72899-1.0103-0.71057-1.338l-0.12808 0.22793c-0.14503-0.24887-1.7502-2.2015-0.91747-1.747-0.15471-0.14144-0.36041-0.22992-0.58345-0.63506l0.16963-0.19401c-0.40081-0.51563-0.73755-1.1765-0.71199-1.3968 0.21385 0.28877 0.36208 0.34295 0.50889 0.39232-1.0121-2.5112-1.0689-0.13869-1.8354-2.5565l0.16198-0.0128c-0.12432-0.18725-0.1996-0.39065-0.2996-0.59014l0.0707-0.7034c-0.10808-0.12498-0.1858-0.29539-0.2442-0.49363-9e-3 -0.2257-0.0137-0.45264-0.0105-0.68142-0.0194 0.14554-0.0425 0.2456-0.0687 0.31921-0.1823-1.1936 0.14387-3.0748 0.2246-4.229 7e-3 -0.0554 0.0211-0.11181 0.0349-0.1682 0.0405-0.12338 0.0829-0.24604 0.12713-0.36794 0.20596-0.47324 0.56133-1.0138 0.85344-1.7456l-0.0564-9e-3c0.28621-0.51734 0.60939-1.0129 0.96765-1.4809 0.85554-0.90848 1.9458-1.8247 2.5828-1.7456 0.50105-0.62946-0.0999-2e-3 -0.19783-0.16104 1.1006-1.139 1.4468-0.80436 2.1895-1.0092 0.80105-0.47547-0.68754 0.18521-0.30774-0.18158 1.3848-0.35372 0.98175-0.80433 2.7883-0.98389 0.19054 0.10843-0.4423 0.16753-0.60113 0.30821 1.1538-0.56449 3.651-0.43594 5.273 0.31347 1.8822 0.87961 3.997 3.4798 4.0804 5.9263l0.0951 0.0253c-0.0481 0.97244 0.14865 2.0973-0.19253 3.1304l0.23219-0.48885c0.0274 0.74328-0.21743 1.1038-0.43817 1.7422l-0.39709 0.19832c-0.32507 0.63124 0.0315 0.40106-0.20119 0.90313-0.50744 0.4512-1.5403 1.4118-1.8708 1.4995-0.24116-6e-3 0.16354-0.28476 0.21648-0.39423-0.67934 0.46654-0.54512 0.7005-1.5841 0.9839l-0.0301-0.0679c-2.5623 1.2054-6.1217-1.1835-6.0749-4.4431-0.0274 0.20693-0.078 0.15529-0.13472 0.23892-0.10143-1.286 0.40963-2.5746 1.3423-3.4166 9e-3 6e-5 0.0189-2e-3 0.0272-5.3e-4 0.0287-0.0362 0.0345-0.0461 0.0449-0.0616 0.12929-0.111 0.26577-0.21378 0.41-0.30679 0.0741-9e-3 0.14814-0.0146 0.23892-0.0397 0.24037-0.14265-0.10902 7e-3 -0.12662-0.0296 0.0301-0.018 0.0591-0.0378 0.0899-0.055 0.21218-0.0647 0.29113-0.13554 0.40521-0.19689 0.0309-0.014 0.062-0.0285 0.0931-0.0417 0.0888-0.0341 0.20604-0.0631 0.40235-0.0826 0.0664 0.0378-0.15396 0.0585-0.20931 0.10749 0.40195-0.19665 1.2722-0.15213 1.8374 0.1089 0.65572 0.30643 1.3921 1.2125 1.4211 2.0648l0.0335 8e-3c-0.0167 0.33876 0.0515 0.73056-0.0675 1.0904l0.0808-0.16916c9e-3 0.25822-0.0756 0.38382-0.15248 0.60593l-0.13856 0.0692c-0.11321 0.21989 0.0116 0.13951-0.0697 0.31443-0.17679 0.15717-0.53668 0.49172-0.6518 0.52229-0.084-2e-3 0.0571-0.099 0.0755-0.13714-0.23667 0.16251-0.18997 0.24388-0.55192 0.34261l-0.0106-0.0233c-0.89268 0.41996-2.1327-0.41221-2.1164-1.5477-9e-3 0.0721-0.027 0.054-0.0468 0.0831-0.046-0.58427 0.27-1.171 0.80278-1.4106 0.52107-0.25798 1.132-0.15244 1.5052 0.19544-0.20506-0.26858-0.61349-0.55325-1.0972-0.52662-0.47376 7e-3 -0.91674 0.30873-1.0647 0.63555-0.24272 0.15283-0.27076 0.58917-0.37653 0.669-0.14229 1.0458 0.26746 1.4975 0.96095 2.029 0.10913 0.0736 0.0306 0.0848 0.0454 0.14096-0.23044-0.10785-0.44105-0.27081-0.61454-0.47021 0.092 0.13474 0.1913 0.26551 0.3197 0.36842-0.21723-0.0736-0.50732-0.52631-0.59205-0.54476 0.3745 0.67052 1.5193 1.1759 2.1188 0.92514-0.27739 0.0105-0.62969 6e-3 -0.94136-0.10949-0.1309-0.0674-0.30896-0.2066-0.27716-0.2327 0.81818 0.30562 1.6632 0.2311 2.3711-0.33643 0.18008-0.14025 0.37656-0.37849 0.43339-0.38178-0.0857 0.12875 0.0148 0.0616-0.0511 0.17535 0.17944-0.2894-0.0776-0.11783 0.18584-0.49983l0.097 0.1343c-0.0362-0.24023 0.29866-0.53228 0.26471-0.91223 0.0767-0.11615 0.0853 0.12501 3e-3 0.39231 0.11298-0.29655 0.0298-0.34404 0.0587-0.5887 0.0314 0.0822 0.0726 0.16981 0.0936 0.25659-0.0737-0.28655 0.0759-0.48285 0.11274-0.64939-0.0363-0.0161-0.1138 0.12682-0.13145-0.21168 3e-3 -0.14704 0.0412-0.077 0.0559-0.11322-0.0288-0.0166-0.10494-0.1293-0.151-0.34548 0.0334-0.0508 0.0893 0.13157 0.13475 0.13905-0.0292-0.17188-0.0797-0.30296-0.0817-0.43485-0.13277-0.27746-0.0466 0.0371-0.15436-0.11898-0.14131-0.44079 0.11729-0.10212 0.13475-0.30249 0.21421 0.31036 0.33626 0.79137 0.39233 0.9906-0.0428-0.24289-0.11205-0.47813-0.1964-0.70578 0.065 0.0273-0.1047-0.50013 0.0846-0.15101-0.0969-0.35638-0.30099-0.69989-0.55287-0.9987 0.13007 0.091 0.25445 0.1887 0.36986 0.29627-0.32546-0.42629-0.82928-0.866-1.4493-1.1617 0-2e-3 0-2e-3 -3e-3 -6e-3 -7e-3 -2e-3 -0.0106-2e-3 -0.018-6e-3 -0.38891-0.18262-0.82375-0.30593-1.2878-0.33544-0.0362-0.0121-0.0635-0.0197-0.10564-0.0349l7e-3 0.0287c-0.0959-2e-3 -0.19275-2e-3 -0.29102 2e-3 -0.1089 2e-3 -0.21703 0.0105-0.32445 0.0224 0.0419-0.0138 0.0963-0.0275 0.14669-0.0349-0.29848 0.0393-0.28419-0.0586-0.5763 0.0105 0.072-0.0505 0.14779-0.0837 0.22462-0.12664-0.24343 0.0148-0.58114 0.14167-0.47689 0.0263-0.39706 0.17714-1.1019 0.42554-1.4976 0.79658l-0.0125-0.0831c-0.18135 0.21768-0.79104 0.65036-0.83961 0.9323l-0.0483 0.0105c-0.0943 0.15975-0.15548 0.34117-0.23033 0.50555-0.12341 0.2103-0.18101 0.0808-0.16343 0.11368-0.24274 0.49213-0.36318 0.90567-0.46735 1.2448 0.0742 0.111 2e-3 0.66769 0.0297 1.1134-0.0162 0.29182 2e-3 0.58234 0.0445 0.86823 0.16967 1.888 1.2329 2.9575 2.8121 4.1678 0.16128 0.10878 0.17947 0.17025 0.16534 0.22602 2e-3 -2e-3 2e-3 -4e-3 2e-3 -5e-3 2.3485 0.8773 4.7744 0.66423 6.8065-0.96478 0.51691-0.40259 1.0816-1.0877 1.2448-1.0972-0.2458 0.36959 0.042 0.17776-0.14671 0.50413 0.51514-0.83074-0.22355-0.33802 0.53279-1.4345l0.27911 0.38467c-0.10388-0.68956 0.85624-1.5271 0.7588-2.6177 0.22021-0.33353 0.24579 0.35898 0.0119 1.1263 0.32433-0.8512 0.0858-0.98781 0.16915-1.6902 0.0901 0.23608 0.20791 0.48676 0.26855 0.73588-0.21129-0.82255 0.21715-1.3851 0.32301-1.8631-0.10433-0.0463-0.32637 0.36338-0.37701-0.60829 7e-3 -0.42203 0.11761-0.2211 0.16007-0.32495-0.0829-0.0476-0.30022-0.37103-0.43246-0.99154 0.0959-0.14579 0.25617 0.37799 0.38661 0.39949-0.0839-0.4934-0.22823-0.86961-0.23415-1.2482-0.38111-0.79647-0.13515 0.10598-0.4444-0.34214-0.40566-1.2653 0.33692-0.29328 0.38706-0.86826 0.61487 0.89085 0.96539 2.2713 1.1263 2.8432-0.1228-0.69723-0.32121-1.3726-0.56341-2.0261 0.18674 0.0785-0.30075-1.4346 0.24276-0.43246-0.58061-2.1362-2.4848-4.1324-4.2366-5.069 0.21434 0.19618 0.48472 0.44258 0.38754 0.4812-0.87117-0.51871-0.71763-0.55922-0.84246-0.77842-0.70977-0.28876-0.75655 0.0233-1.2267 5.3e-4 -1.3377-0.7095-1.5955-0.63397-2.8265-1.0785l0.0559 0.26138c-0.56699-0.18882-0.83238-0.0903-1.1999-0.0238-0.22899-4e-3 -0.45997-7.9e-4 -0.69337 0.0119-0.0329 5.3e-4 -0.0656 2e-3 -0.0984 4e-3 -7e-3 -0.0507 0.3266-0.15772 0.6088-0.1988-0.85686 0.1131-0.81691-0.16847-1.6553 0.0315 0.20667-0.14501 0.42512-0.24132 0.64558-0.3646-0.69877 0.0425-1.6678 0.40673-1.3686 0.0755-1.1397 0.50847-3.1638 1.2224-4.2997 2.2875l-0.0358-0.23844c-0.5205 0.62484-2.2699 1.8658-2.4093 2.675l-0.13907 0.0325c-0.26306 0.44541-0.43663 0.94732-0.64319 1.4082-0.12215 0.11991-0.23553 0.25005-0.34261 0.38707-0.12413 0.0386-0.17462-0.076-0.14382-0.0181-0.15081 0.30575-0.28278 0.59882-0.40378 0.88356-0.80393 1.5401-1.1051 3.4336-1.7169 3.8954-1.1848 8.7075 2.2285 12.47 8.0026 16.895 0.46827 0.31577 0.52093 0.49323 0.47975 0.65515 4e-3 -5e-3 4e-3 -0.0105 8e-3 -0.0139 6.812 2.5447 13.849 1.9272 19.743-2.7978 1.4994-1.1677 3.1374-3.1546 3.6107-3.182-0.71297 1.072 0.12176 0.51559-0.42577 1.4622 1.4942-2.4096-0.64934-0.98067 1.5444-4.1611l0.81042 1.1158c-0.30118-2.0001 2.4836-4.4292 2.201-7.5926 0.63875-0.96742 0.71297 1.0409 0.0349 3.2666 0.68131-1.7881 0.50692-2.4956 0.45014-3.5203 0.40037 1.0979 0.77594 2.3685 1.2037 0.71534 0.12727-1.8242 0.0643-2.9226-0.0993-3.5089 0.24707-0.68202 0.52597-1.2931 0.6513-1.8588-0.30268-0.13427-0.94596 1.0551-1.0929-1.7633 0.0217-1.2241 0.34039-0.64158 0.46352-0.94278-0.24034-0.138-0.87079-1.0769-1.2543-2.8767 0.27818-0.42287 0.74316 1.0965 1.1215 1.1588-0.24333-1.4311-0.66246-2.5222-0.67953-3.6202-1.1054-2.3102-0.39087 0.30778-1.2878-0.992-1.1766-3.6701 0.9761-0.85148 1.1215-2.5192 1.7835 2.584 2.8009 6.5884 3.2676 8.2472-0.3561-2.0224-0.93215-3.9816-1.6347-5.8771 0.54157 0.22775-0.87218-4.1611 0.70437-1.2544-1.6841-6.1962-7.2078-11.986-12.289-14.703 0.62169 0.56903 1.4067 1.2833 1.1248 1.3953-2.5268-1.5045-2.0822-1.6216-2.4442-2.2574-2.0588-0.83759-2.194 0.0675-3.5576 2e-3 -3.88-2.058-4.6278-1.8391-8.1985-3.1285l0.16248 0.75883c-2.5706-0.85613-2.9951 0.32484-5.7734 2e-3 -0.16916-0.13204 0.89011-0.47761 1.7618-0.60447-2.4853 0.32791-2.3686-0.48984-4.8005 0.0903 0.59944-0.42066 1.2332-0.69893 1.8727-1.0565-2.0268 0.12316-4.839 1.1796-3.971 0.21886-3.3058 1.4749-9.1772 3.5458-12.472 6.635l-0.10365-0.69242c-1.5097 1.8124-6.5833 5.413-6.9876 7.7603l-0.40377 0.0942c-0.78567 1.3302-1.294 2.8378-1.9172 4.2065-1.0275 1.7508-1.5056 0.67355-1.3595 0.94805-2.0209 4.0974-3.0248 7.5405-3.8921 10.364 0.2841 0.42461 0.30734 1.651 0.27524 3.1944-0.16258 0.21509-0.33164 0.39591-0.51179 0.5266-2.4726 17.463 2.6785 27.052 12.5 35.857 2.4585 2.5416 5.1788 4.7309 8.0508 6.462 0.16295 0.12071 0.32252 0.24064 0.48693 0.36174 1.209 0.78338 1.3654 1.2301 1.2682 1.6333 5e-3 -5e-3 7e-3 -0.0105 0.013-0.0144 16.998 6.1019 34.528 5.0056 49.516-5.3299 1.3687 0.37813 2.6436 0.84673 2.449 2.6592 2.4155-3.2042 4.5226-6.5503 6.2278-9.9962 1.4657-1.374 2.6447-2.4076 3.1987-2.4385-1.8742 2.7082 0.31967 1.3024-1.1196 3.6938 3.9278-6.0872-1.7061-2.4778 4.0608-10.512l2.1293 2.8188c-0.79181-5.0527 6.5293-11.189 5.7863-19.18 1.6792-2.4439 1.8742 2.6296 0.0917 8.252 2.4729-6.2372 0.65154-7.24 1.2873-12.386 0.68647 1.7298 1.5873 3.5681 2.0495 5.3935-1.6109-6.0273 1.654-10.15 2.4614-13.653-0.79569-0.33923-2.4867 2.6654-2.8728-4.4545 0.0565-3.0924 0.89524-1.6212 1.219-2.3821-0.63187-0.3486-2.2894-2.7195-3.2976-7.2662 0.73131-1.0683 1.9537 2.7699 2.9483 2.9273-0.63966-3.6152-1.7414-6.3719-1.7862-9.1456-2.9059-5.8361-1.0277 0.77765-3.3856-2.5059-3.0931-9.2714 2.5666-2.1514 2.9488-6.3645 4.6884 6.5277 7.3622 16.644 8.5889 20.835-0.93612-5.1089-2.4495-10.058-4.2964-14.847 1.4237 0.57536-2.2936-10.512 1.8507-3.1696-4.4271-15.653-18.947-30.279-32.304-37.142 1.6343 1.4375 3.698 3.2426 2.957 3.5256-6.6426-3.8008-5.4745-4.097-6.4262-5.7032-5.412-2.1159-5.767 0.17062-9.3515 0.0037-10.2-5.1989-12.166-4.6459-21.552-7.9032l0.42718 1.9171c-6.7576-2.1628-7.8734 0.82104-15.177 0.0077-0.44465-0.3336 2.3403-1.2072 4.6318-1.5277-6.5333 0.82837-6.2271-1.2367-12.62 0.22889 1.5758-1.0626 3.2412-1.7655 4.9224-2.6688-5.3281 0.31111-12.719 2.9799-10.438 0.55288-8.6903 3.7258-24.124 8.9562-32.785 16.76l-0.27285-1.7485c-3.9688 4.5785-17.307 13.674-18.37 19.604l-1.0608 0.23797c-2.0653 3.3603-3.4012 7.1686-5.0394 10.626-2.7011 4.423-3.959 1.7016-3.5748 2.395-5.3125 10.351-7.9514 19.049-10.231 26.182 0.0676 0.097 0.12808 0.21588 0.18492 0.34453-0.0614 0.0496-0.12258 0.0996-0.18492 0.14479-3.1715 22.399-1.329 39.617 4.5315 54.047 5.4427 17.919 16.033 34.351 29.353 47.048-4.4387-3.5448-8.6081-7.4663-12.442-11.702 5.0374 7.0855 10.475 13.974 17.502 19.387-11.889-3.8708-27.771-27.686-32.409-28.656 20.496 35.263 83.153 61.843 115.96 48.656-12.096 0.42939-26.798 0.36129-40.904-2.7481 4.7038 0.51896 9.9565 0.53771 14.682 0.66948-8.7234-2.397-9.8508-1.2708-18.348-4.1176-5.2244-2.3641-6.9771-5.0152-10.067-7.9883 40.943 11.336 82.444 5.6742 117.72-21.5 9.8552-7.376 20.622-19.926 23.733-20.099-4.6863 6.7715 0.79999 3.2568-2.7988 9.2364 9.8212-15.221-4.2672-6.1951 10.152-26.285l5.3252 7.0478c-1.9798-12.634 16.326-27.976 14.468-47.958 4.1986-6.1108 4.6864 6.5746 0.22934 20.633 6.1834-15.596 1.6286-18.103 3.2184-30.971 1.7165 4.3253 3.9692 8.9226 5.125 13.487-4.0279-15.071 4.1354-25.38 6.1543-34.139-1.9896-0.8482-6.2175 6.6636-7.1831-11.139 0.14139-7.7322 2.2382-4.0534 3.0477-5.9559-1.58-0.87162-5.7247-6.7997-8.2458-18.168 1.8287-2.6711 4.8863 6.9261 7.3733 7.3197-1.5995-9.0396-4.3548-15.933-4.467-22.869-7.2659-14.593-2.57 1.9451-8.4656-6.2651-7.734-23.182 6.4175-5.3799 7.3733-15.914 11.723 16.322 18.408 41.618 21.476 52.096-2.3407-12.774-6.1246-25.151-10.743-37.124 3.5598 1.4386-5.7349-26.285 4.6275-7.9242-7.9396-28.075-28.87-54.829-52.396-74.045zm-117.39 207.17c-0.0538 0.0504-0.0763 0.11695-0.0664 0.19974 0.0267-0.0662 0.0502-0.13246 0.0664-0.19974zm-0.0664 0.19974c-0.12958 0.32102-0.33804 0.64501-0.20546 1.1277-5.0433-2.2696-9.6616-5.6953-13.459-9.8896 2.0146 2.8337 4.1893 5.5885 6.9996 7.7532-4.7547-1.548-11.107-11.072-12.961-11.46 8.1969 14.103 33.256 24.733 46.377 19.459-6.0711 0.21552-13.784 0.12002-20.606-2.3032-2.5963-1.284-6.04-3.8148-6.1447-4.6868zm10.784-27.753c-0.0132 0.0159-0.0198 0.035-0.0196 0.0578 7e-3 -0.0192 0.0147-0.0385 0.0196-0.0578zm-0.0196 0.0578c-0.0487 0.13123-0.13283 0.26182-0.0808 0.45921-1.9185-0.89842-3.6752-2.2547-5.1197-3.915 0.76637 1.1217 1.5936 2.2124 2.6626 3.0692-1.8087-0.6128-4.225-4.3832-4.9305-4.5367 3.1181 5.5827 12.65 9.7906 17.642 7.703-2.3095 0.0853-5.2436 0.0475-7.8387-0.91175-1.002-0.51569-2.3323-1.5374-2.3348-1.8679zm3.6193-11.752c-5e-3 5e-3 -7e-3 0.0105-7e-3 0.0176 2e-3 -6e-3 6e-3 -0.0118 7e-3 -0.0176zm-7e-3 0.0176c-0.0167 0.0461-0.046 0.0912-0.0278 0.16056-0.66143-0.30974-1.2672-0.77751-1.7652-1.3499 0.26421 0.38672 0.54937 0.76302 0.91797 1.0584-0.6236-0.21127-1.4565-1.5111-1.6997-1.564 1.075 1.9247 4.3612 3.3752 6.0821 2.6554-0.79621 0.0294-1.8076 0.0162-2.7022-0.31444-0.34766-0.17891-0.81019-0.53444-0.80517-0.64605zm1.0427-9.8246 0.0559-5e-3 5e-3 -7e-3zm0.0602-0.0124c0.0935-0.0206 0.11474-0.0392-0.1706-0.0474 0.0854 0.0154 0.18449 0.027 0.1706 0.0474zm-59.967-157.87c-3.0149 0.9484-7.7226 1.9353-9.4615 3.4152 2.8782-1.3532 6.198-2.487 9.8586-3.4085-0.13263-0.0015-0.2647-0.0043-0.39709-0.0067zm-73.063 1.9558c-0.0145-0.0054-0.085 7.15e-4 -0.2246 0.0215-1.4842 0.22116-2.9565 0.51568-4.4297 0.80518 0.37682 7.68e-4 0.75312-0.0067 1.1263-0.05543 0.97974-0.12804 3.6291-0.73336 3.528-0.77125zm187.09 9.2135c-0.018-0.0055-0.10716 0.0066-0.28387 0.04062-1.4687 0.2823-2.9238 0.63176-4.3824 0.96335 0.0567-0.0029 0.11346-0.0043 0.17013-0.0077 1.2576-0.0722 4.6219-0.95807 4.4961-0.99632zm-304.03 44.656c-0.0048 0.27732 0.01891 0.50662 0.06451 0.6991-0.01757-0.23056-0.03796-0.46288-0.06451-0.6991zm0.06451 0.6991c0.88504 11.625-9.3419 16.006 2.3443 8.1531 6.0361-13.067-1.5625-4.8523-2.3443-8.1531zm244.38 22.639c-3.2764 0.26426-6.5374 0.42175-9.7572 0.82095l1.4178 0.18541c2.3696-0.834 5.8256-0.45723 8.3395-1.0064zm-9.0319 2.622c1.8703 0.32235 4.0411 0.56953 3.7368 0.99871 2.0458-0.43105 2.5098-0.82816-3.7368-0.99871zm3.7368 0.99871-1.3222 0.26234 1.2305-0.10465zm-248.86 11.609c-7.5877 9.3208-3.4918 11.308-4.2916 17.648 2.7454-8.0977 3.2431-12.962 4.2916-17.648zm162.63 28.286c-2e-3 0.0936 7e-3 0.17026 0.0201 0.23939-7e-3 -0.0797-0.0105-0.15796-0.0201-0.23939zm0.0201 0.23939c0.37943 4.6778-3.7432 6.4498 0.94328 3.3005 2.436-5.2734-0.67853-1.8827-0.94328-3.3005zm96.101 5.879c-1.2464 0.10458-2.4866 0.16692-3.7115 0.32494l0.53901 0.0737c0.90138-0.33013 2.2162-0.18116 3.1725-0.39853zm-3.4358 1.0379c0.71147 0.1276 1.5374 0.22577 1.4216 0.39566 0.77824-0.17064 0.95465-0.32815-1.4216-0.39566zm1.4216 0.39566-0.50319 0.10365 0.4683-0.0417zm-97.992 7.8721c-3.0346 3.7277-1.3961 4.5221-1.716 7.0579 1.098-3.2385 1.2967-5.1837 1.716-7.0579zm65.189 7.9204c0.20773 1.923-1.4466 2.6689 0.36652 1.4011 0.97188-2.1893-0.37987-0.60427-0.36652-1.4011zm35.951 4.2276c-0.4297 0.0361-0.85743 0.0573-1.2797 0.11182l0.1859 0.0253c0.31076-0.1138 0.7641-0.0622 1.0938-0.13715zm-1.1846 0.35791c0.24529 0.044 0.53016 0.0776 0.49027 0.13618 0.26829-0.0588 0.32897-0.11286-0.49027-0.13618zm0.49027 0.13618-0.17347 0.0358 0.16152-0.0144zm-36.734 1.3839c-1.1544 1.4756-0.53109 1.7902-0.65276 2.794 0.41769-1.282 0.49325-2.0521 0.65276-2.794zm25.425 4.0608c0.0717 0.66296-0.49847 0.92022 0.12663 0.48311 0.33506-0.75477-0.13124-0.20841-0.12663-0.48311zm12.044 1.511c-0.14971 0.0126-0.29873 0.0197-0.44585 0.0387l0.0645 9e-3c0.10831-0.0397 0.26647-0.0216 0.38133-0.0478zm-12.554 0.59398c-0.39799 0.50873-0.18314 0.61728-0.22508 0.96335 0.14401-0.44198 0.17009-0.70758 0.22508-0.96335zm8.3715 1.4747c0.025 0.23095-0.17384 0.32095 0.0439 0.16867 0.11671-0.26295-0.0456-0.0729-0.0439-0.16867zm-0.17732 0.73349c-0.13865 0.17723-0.0638 0.2149-0.0783 0.33545 0.0501-0.15397 0.0592-0.24634 0.0783-0.33545zm14.399 0.53949c-0.16491 5e-3 -0.37666 0.42305-0.48313 0.88116 0.24855 0.12909 0.44535 1.692 0.68572 0.72539 0.0805-1.2004-0.0377-1.6107-0.20259-1.6066zm-6.2144 0.32542c-0.0568 2e-3 -0.12962 0.14549-0.16632 0.30344 0.0857 0.0445 0.15367 0.58366 0.23654 0.25038 0.0278-0.41383-0.0135-0.55526-0.0703-0.55382zm-2.4786 0.20548c-0.0198 5.3e-4 -0.0451 0.051-0.0578 0.1061 0.0299 0.0155 0.0533 0.20307 0.0822 0.0871 9e-3 -0.14418-5e-3 -0.19356-0.0246-0.19305zm1.7509 0.48598-0.0236 0.0588c-0.0431 0.30635-0.13637 0.60969-0.27908 0.89072 0.15771-0.29654 0.25971-0.62087 0.30249-0.94948zm-1.8546 0.10796c-0.0214 0.10621-0.079 0.19759-0.13329 0.29435-0.29933 0.18846-0.028-0.11181 0-0.22602-0.32187 0.40508-0.0442 0.24332-0.0559 0.35648 0.0954-0.1316 0.16476-0.27583 0.18926-0.42481zm7.6083 0.59492-0.0675 0.16964c-0.12377 0.87935-0.39113 1.7493-0.80087 2.556 0.45273-0.85121 0.74549-1.7824 0.86823-2.7257zm-8.2606 0.0233c-0.1302 0.0319-0.26268 0.0327-0.39616 0.0205-0.16012 2e-3 0.0299 0.0825 0.23895 0.11461 0.0577-0.0452 0.11051-0.0909 0.15721-0.13522zm-2.0208 0.021c0.0354 0.12983 0.10761 0.24113 0.17489 0.35457l-0.0491-0.14526c-0.0558-0.0616-0.0888-0.13542-0.12569-0.2093zm-0.12328 0.21934-0.0224 0.11228c0.10528 0.14294 0.18865 0.29778 0.32303 0.40952-0.0966-0.18873-0.16842-0.26671-0.30057-0.52181zm5.0815 0.0459c-0.0614 0.30489-0.22651 0.56851-0.38227 0.84627-0.85916 0.54097-0.0808-0.32127 0-0.64891-0.92332 1.1621-0.12804 0.69742-0.16055 1.0212 0.27347-0.37763 0.47254-0.79106 0.54282-1.2185zm-1.8732 1.7757c-0.37367 0.0915-0.75364 0.0934-1.1368 0.0582-0.45961 7e-3 0.0866 0.2369 0.68667 0.32925 0.16576-0.12942 0.31612-0.26017 0.45014-0.38754zm-5.8002 0.0598c0.10131 0.37263 0.30863 0.6927 0.50174 1.0183l-0.14095-0.41668c-0.15985-0.17675-0.25491-0.38959-0.36079-0.60161zm28.763 0.18013-0.19589 0.49124c-0.35907 2.5506-1.1344 5.0744-2.3228 7.4143 1.3131-2.469 2.1626-5.1695 2.5187-7.9056zm-29.116 0.44966-0.0644 0.32207c0.30208 0.41027 0.5418 0.85479 0.92751 1.1755-0.2775-0.54174-0.48374-0.76532-0.86302-1.4976zm13.677 0.44869c-0.17803 0.88436-0.65825 1.6481-1.11 2.4538-2.492 1.5691-0.23437-0.93191-3e-3 -1.8823-2.6797 3.3726-0.36774 2.0224-0.46493 2.9646 0.79383-1.0958 1.3724-2.2957 1.5764-3.5361zm52.855 4.8531-0.51512 1.241c-0.94392 6.4433-2.9817 12.819-6.106 18.73 3.4519-6.2372 5.685-13.059 6.6212-19.971zm-58.288 0.29675c-1.0839 0.2656-2.1873 0.27128-3.2986 0.16963-1.3332 0.0186 0.25217 0.68692 1.9926 0.95475 0.48075-0.3754 0.91723-0.75492 1.306-1.1244zm-16.824 0.17346c0.2938 1.0809 0.89543 2.0096 1.4555 2.9541l-0.41047-1.209c-0.46368-0.51265-0.73793-1.1301-1.0451-1.7451zm34.523 1.7996c-0.46805 2.234-1.7301 4.1624-2.9178 6.1977-6.5509 3.9638-0.61619-2.3538-4e-3 -4.7546-7.0443 8.5199-0.96737 5.1087-1.2228 7.4889 2.0868-2.7681 3.6081-5.7984 4.1444-8.932zm-35.549 0.0267-0.1873 0.93515c0.87616 1.19 1.5715 2.4792 2.6903 3.4095-0.80494-1.5713-1.4028-2.2206-2.503-4.3446zm162.28 3.1103-1.2874 3.1022c-2.3602 16.111-7.4562 32.054-15.268 46.834 8.6313-15.596 14.215-32.653 16.556-49.936zm-141.01 9.8714c-2.8493 0.67095-5.7496 0.68588-8.6711 0.42912-3.5046 0.0469 0.66343 1.7356 5.2387 2.4122 1.2638-0.94832 2.4105-1.908 3.4324-2.8413zm-44.226 0.43867c0.77232 2.7306 2.3542 5.0768 3.8266 7.4626l-1.0785-3.0549c-1.2189-1.295-1.9407-2.854-2.7481-4.4077zm-2.697 4.6141-0.49123 2.361c2.3033 3.0062 4.1303 6.2636 7.0712 8.6138-2.116-3.9695-3.6878-5.6091-6.58-10.975zm79.412 5.8078c-0.0866 0.14754-0.17264 0.29212-0.259 0.44009-0.22805 0.13802-0.42802 0.25271-0.64413 0.38084 0.30557-0.27179 0.60341-0.5452 0.90313-0.82093zm-28.679 17.47c-7.1245 1.6776-14.376 1.7148-21.681 1.0728-8.763 0.11714 1.6582 4.3397 13.098 6.0314 3.1599-2.3712 6.027-4.7705 8.5822-7.1042zm-110.58 1.0967c1.9311 6.8277 5.8858 12.695 9.5675 18.66l-2.6965-7.6385c-3.0478-3.2381-4.8522-7.1368-6.871-11.022zm-6.7439 11.537-1.229 5.9043c5.7591 7.5166 10.328 15.661 17.682 21.538-5.2909-9.9253-9.2211-14.026-16.453-27.442zm65.42 41.138c1.9851 0.64352 3.9724 1.248 5.9612 1.812l0.95381 1.6204c-4.7817-1.6261-5.7543-2.5562-6.915-3.4324z" style="fill-opacity:.15686"/>
	<g id="logo" transform="matrix(.36279 0 0 .36279 158.28 146.08)">
		<path id="debian" transform="scale(.26458)" d="m919.81 690.38c-12.21 5.6408-19.733 6.5738-27.807 7.3281 7.3278 3.0009 7.3281 15.414 7.3281 55.816v46.217l-4e-3 4e-3c0 13.909 8.1e-4 21.797-2.2539 27.807 7.7049 3.009 17.282 4.6973 28.75 4.6973 7.3278 0 28.561-6.2e-4 40.021-23.484 5.4502-10.9 7.3281-25.56 7.3281-36.646 0-6.7641-0.75498-21.606-6.2012-31.006-5.2555-8.8241-13.714-13.338-22.729-13.338-18.042 0-23.301 15.031-26.115 22.736 0-9.5825 0.18128-43.03 1.6816-60.131zm-105.16 0.38281c-6.76 3.1996-12.591 5.2673-25.369 6.3906 5.0731 5.4502 5.0723 8.2687 5.0723 33.066-3.5645-1.1233-8.0764-2.4414-15.781-2.4414-33.627 0-39.082 29.307-39.084 51.123v6e-3 8e-3c5e-3 52.971 28.186 52.973 32.318 52.973 11.651 0 19.17-6.3917 22.361-17.475l0.37695 16.721c3.5726-0.19049 7.1415-0.56446 12.965-0.56446 2.0682 0 3.7551 9.2e-4 5.2637 0.19141 1.5045 0 3.0043 0.18256 4.6953 0.37305-3.0049-6.0098-5.2598-19.538-5.2598-48.861 0-28.561 1.8e-4 -76.85 2.4414-91.51zm313.44 35.697c-4.704 2.4331-9.5814 4.8785-24.805 5.6328 2.0601 1.8776 3.9463 3.5645 4.879 10.9 1.7032 12.02 0.9515 62.759 0.5703 73.096-0.3731 10.519-1.1276 12.024-2.4414 15.033 3.751-0.56361 6.756-0.74805 11.27-0.74805 5.6367 0 9.5839 0.37501 12.775 0.74805-1.8775-6.5816-1.878-8.8292-2.0606-32.885 0-27.807-3e-4 -34.952 1.4961-41.525 1.318-6.391 4.8859-14.279 15.596-14.279 10.909 0 11.842 8.6426 12.215 11.834 0.5718 4.5054 0.5722 17.287 0.5722 26.119v20.293c0 5.0771-0.3777 19.55-0.9414 23.865-0.373 3.1996-0.7577 4.1408-1.5039 6.582 3.5727-0.55963 6.0139-0.9414 10.527-0.9414 7.6968 0 10.137 0.56836 14.277 0.9414-2.6279-5.4502-2.6279-12.214-2.8183-18.605v-56.574c-0.1906-11.269-0.3714-28.371-23.863-28.371-18.796 0-23.494 12.965-25.744 18.797zm-120.67 0.19531c-7.1371 3.3821-11.459 4.5053-26.865 6.0098 2.6318 1.8776 4.317 3.0012 5.2578 10.146 1.3139 9.3959 1.1273 54.12 0.37305 70.848-0.56368 12.206-1.3138 13.902-3.1914 17.475 4.3148-0.5596 8.4592-0.94141 14.461-0.94141 5.4502 0 8.0863 0.37773 11.85 0.94141v-8e-3c-4.1404-7.7049-3.949-14.68-3.5801-79.482 0-12.583 0.199-16.728 1.6953-24.988zm-147.42 0.90039c-38.33 0-38.33 42.478-38.33 51.488 0 38.143 17.096 53.176 45.848 53.176 12.77 0 18.979-1.8695 22.361-2.8184-0.18671-6.7641 0.75127-11.087 1.8867-16.91-3.9538 2.4494-9.0273 5.6406-20.301 5.6406-29.315 0-29.693-26.691-29.693-35.896h49.994l0.36328-11.102c-3e-3 -21.979-4.3281-43.578-32.129-43.578zm195.94 0.19727c-18.597 0-29.493 5.6406-34.943 8.459 2.2588 4.1363 4.1372 7.6969 5.8242 15.787 7.3359-6.391 16.919-9.7715 26.684-9.7715 15.604 0 15.604 10.337 15.604 24.988-3.5726-0.18255-6.5811-0.55664-11.658-0.55664-23.859 0.0404-39.637 9.2365-39.656 34.385v0.0234 0.0215c0.01 11.826 3.5855 23.636 14.1 28.707 4.6959 2.0682 9.3918 2.0664 10.9 2.0664 17.291 0 23.111-12.78 26.684-20.672-0.1905 8.2686 7e-4 13.336 0.5644 19.918 3.3821-0.19049 6.7635-0.5625 12.404-0.5625 3.1915 0 6.2011 0.37189 9.3926 0.5625-2.0682-3.1914-3.1919-5.0765-3.7637-12.404-0.373-7.1372-0.373-14.279-0.373-24.238l0.1894-38.334c0-14.287-3.7633-28.379-31.951-28.379zm-197.82 12.037c14.66 0 15.779 16.156 15.406 29.502h-32.131c0.19049-15.596 3.387-29.502 16.725-29.502zm-77.102 1.3262c6.391 0 9.959 1.8845 12.777 3.3809l0.18164 12.229c-0.18226 0.22223-0.18171 30.437-0.55859 38.328-0.37304 6.3829-0.94054 20.102-14.469 20.102-13.905 0-17.289-15.973-18.416-22.92-1.3139-7.7049-1.3125-14.1-1.3125-16.91 0-9.0229 0.56376-34.209 21.797-34.209zm155.14 3.7715c14.282 0 17.1 19.707 17.1 34.387-9.3e-4 17.473-3.1947 40.959-24.988 40.959-3.009 0-6.7638-0.57318-9.2051-1.1328-0.37719-6.7641-0.37695-18.413-0.37695-31.941 0-16.164 1.6878-24.608 3.0098-28.752 3.9417-13.338 12.774-13.52 14.461-13.52zm123.35 33.041h9.9668c-0.3731 11.841-0.5641 20.11-3.7637 26.684-3.9457 8.4592-10.52 10.9-15.406 10.9-11.286 0-13.719-9.3923-13.719-18.598 0-17.66 15.789-18.986 22.922-18.986z" style="stroke-width:4.0552"/>
		<path id="dot" d="m267.46 185.22-4.118 4.1158-4.1158-4.1158 4.1158-4.1158 4.118 4.1201" style="fill:#d70751">
			<animate attributeType="XML" attributeName="fill" from="#d70707ff" to="#d70707ff" values="#d70707ff; #cbd707ff; #09d707ff; #07cbd7ff; #0d07d7ff; #d707cbff; #d70707ff;" keyTimes="0; 0.12; 0.35; 0.5; 0.65; 0.88; 1" dur="60s" repeatCount="indefinite"/>
		</path>
	</g>
</svg>