<?xml version="1.0" encoding="UTF-8" standalone="no"?>
<!-- Created with Inkscape (http://www.inkscape.org/) -->

<svg
   width="3840"
   height="2160"
   id="svg1306"
   version="1.0"
   sodipodi:docname="Debian Etch Wallpaper 3840x2160.svg"
   inkscape:version="1.4 (86a8ad7, 2024-10-11)"
   inkscape:export-filename="Debian Etch Wallpaper 3840x2160.jpg"
   inkscape:export-xdpi="96"
   inkscape:export-ydpi="96"
   xmlns:inkscape="http://www.inkscape.org/namespaces/inkscape"
   xmlns:sodipodi="http://sodipodi.sourceforge.net/DTD/sodipodi-0.dtd"
   xmlns:xlink="http://www.w3.org/1999/xlink"
   xmlns="http://www.w3.org/2000/svg"
   xmlns:svg="http://www.w3.org/2000/svg"
   xmlns:rdf="http://www.w3.org/1999/02/22-rdf-syntax-ns#"
   xmlns:cc="http://creativecommons.org/ns#"
   xmlns:dc="http://purl.org/dc/elements/1.1/">
  <sodipodi:namedview
     id="namedview145"
     pagecolor="#ffffff"
     bordercolor="#000000"
     borderopacity="0.25"
     inkscape:showpageshadow="2"
     inkscape:pageopacity="0.0"
     inkscape:pagecheckerboard="0"
     inkscape:deskcolor="#d1d1d1"
     showgrid="false"
     inkscape:zoom="0.125"
     inkscape:cx="744"
     inkscape:cy="796"
     inkscape:window-width="1920"
     inkscape:window-height="991"
     inkscape:window-x="-9"
     inkscape:window-y="-9"
     inkscape:window-maximized="1"
     inkscape:current-layer="layer1" />
  <defs
     id="defs1308">
    <linearGradient
       id="linearGradient1812">
      <stop
         style="stop-color:#ffffff;stop-opacity:0.058823530;"
         offset="0.0000000"
         id="stop1813" />
      <stop
         style="stop-color:#ffffff;stop-opacity:0.0000000;"
         offset="1.0000000"
         id="stop1814" />
    </linearGradient>
    <linearGradient
       id="linearGradient4276">
      <stop
         style="stop-color:#ffffff;stop-opacity:0.11764706;"
         offset="0.0000000"
         id="stop4277" />
      <stop
         style="stop-color:#fefeff;stop-opacity:0.0000000;"
         offset="1.0000000"
         id="stop4278" />
    </linearGradient>
    <linearGradient
       id="linearGradient1810">
      <stop
         style="stop-color:#ffffff;stop-opacity:0.39215687;"
         offset="0.0000000"
         id="stop1811" />
      <stop
         style="stop-color:#fefeff;stop-opacity:0.054901961;"
         offset="1.0000000"
         id="stop1812" />
    </linearGradient>
    <linearGradient
       id="linearGradient12401">
      <stop
         style="stop-color:#ffffff;stop-opacity:0.0000000;"
         offset="0.0000000"
         id="stop12402" />
      <stop
         style="stop-color:#ffffff;stop-opacity:0.039215688;"
         offset="0.50000000"
         id="stop9333" />
      <stop
         style="stop-color:#ffffff;stop-opacity:0.0000000;"
         offset="1.0000000"
         id="stop12403" />
    </linearGradient>
    <style
       type="text/css"
       id="style2415">
   
    .fil0 {fill:#0093DD}
    .fil2 {fill:#FFFFFF}
    .fil1 {fill:#1F1A17}
   
  </style>
    <style
       type="text/css"
       id="style2017">
   
    .fil0 {fill:#0093DD}
    .fil2 {fill:#FFFFFF}
    .fil1 {fill:#1F1A17}
   
  </style>
    <defs
       id="defs8743">
      <linearGradient
         x1="0"
         y1="0.5"
         x2="1"
         y2="0.5"
         id="linearGradient7346"
         xlink:href="#linearGradient9558"
         gradientUnits="objectBoundingBox"
         spreadMethod="pad" />
      <linearGradient
         x1="0"
         y1="0.5"
         x2="1"
         y2="0.5"
         id="linearGradient6100"
         xlink:href="#linearGradient403"
         gradientUnits="objectBoundingBox"
         spreadMethod="pad" />
      <linearGradient
         x1="0"
         y1="0.5"
         x2="1"
         y2="0.5"
         id="linearGradient4232"
         xlink:href="#linearGradient4907"
         gradientUnits="objectBoundingBox"
         spreadMethod="pad" />
      <linearGradient
         id="linearGradient1594">
        <stop
           style="stop-color:#03a4fe;stop-opacity:0.0000000;"
           offset="0.0000000"
           id="stop1595" />
        <stop
           style="stop-color:#0090ff;stop-opacity:0.26424870;"
           offset="1.0000000"
           id="stop1596" />
      </linearGradient>
      <linearGradient
         id="linearGradient2829">
        <stop
           style="stop-color:#37ffff;stop-opacity:0.40784314;"
           offset="0.0000000"
           id="stop2830" />
        <stop
           style="stop-color:#60ffff;stop-opacity:0.0000000;"
           offset="1.0000000"
           id="stop2831" />
      </linearGradient>
      <linearGradient
         x1="0"
         y1="0.5"
         x2="1"
         y2="0.5"
         id="linearGradient1587"
         xlink:href="#linearGradient4904"
         gradientUnits="objectBoundingBox"
         spreadMethod="pad" />
      <linearGradient
         id="linearGradient2952">
        <stop
           style="stop-color:#ffffff;stop-opacity:0.37823835;"
           offset="0.0000000"
           id="stop2953" />
        <stop
           style="stop-color:#ffffff;stop-opacity:0.0000000;"
           offset="1.0000000"
           id="stop2954" />
      </linearGradient>
      <linearGradient
         id="linearGradient1870">
        <stop
           style="stop-color:#9dfffd;stop-opacity:0.99481863;"
           offset="0.0000000"
           id="stop1871" />
        <stop
           style="stop-color:#003fa7;stop-opacity:0.97409326;"
           offset="1.0000000"
           id="stop1872" />
      </linearGradient>
      <linearGradient
         id="linearGradient1598">
        <stop
           style="stop-color:#ffffff;stop-opacity:0.99481863;"
           offset="0.0000000"
           id="stop1599" />
        <stop
           style="stop-color:#53bdda;stop-opacity:1.0000000;"
           offset="1.0000000"
           id="stop1600" />
      </linearGradient>
      <linearGradient
         x1="0"
         y1="0.5"
         x2="1"
         y2="0.5"
         id="linearGradient6007"
         xlink:href="#linearGradient4901"
         gradientUnits="objectBoundingBox"
         spreadMethod="pad" />
      <linearGradient
         x1="0"
         y1="0.5"
         x2="1"
         y2="0.5"
         id="linearGradient7207"
         xlink:href="#linearGradient4928"
         gradientUnits="objectBoundingBox"
         spreadMethod="pad" />
      <linearGradient
         id="linearGradient2219">
        <stop
           style="stop-color:#001e00;stop-opacity:1.0000000;"
           offset="0.0000000"
           id="stop2220" />
        <stop
           style="stop-color:#000022;stop-opacity:0.0000000;"
           offset="1.0000000"
           id="stop2221" />
      </linearGradient>
      <linearGradient
         id="linearGradient17389">
        <stop
           style="stop-color:#000000;stop-opacity:0.45098040;"
           offset="0.0000000"
           id="stop17390" />
        <stop
           style="stop-color:#000000;stop-opacity:0.0000000;"
           offset="1.0000000"
           id="stop17391" />
      </linearGradient>
      <linearGradient
         x1="0"
         y1="0.5"
         x2="1"
         y2="0.5"
         id="linearGradient16142"
         xlink:href="#linearGradient9552"
         gradientUnits="objectBoundingBox"
         spreadMethod="pad" />
      <linearGradient
         id="linearGradient4028">
        <stop
           style="stop-color:#87ffff;stop-opacity:0.70588237;"
           offset="0.0000000"
           id="stop4029" />
        <stop
           style="stop-color:#ffffff;stop-opacity:0.0000000;"
           offset="1.0000000"
           id="stop4030" />
      </linearGradient>
      <linearGradient
         x1="0"
         y1="0.5"
         x2="1"
         y2="0.5"
         id="linearGradient2167"
         xlink:href="#linearGradient9555"
         gradientUnits="objectBoundingBox"
         spreadMethod="pad" />
      <linearGradient
         x1="0.52649009"
         y1="0.036585364"
         x2="0.52649009"
         y2="0.96951222"
         id="linearGradient13655"
         xlink:href="#linearGradient2167" />
      <linearGradient
         x1="0.30635837"
         y1="0.796875"
         x2="0.86416185"
         y2="0.5390625"
         id="linearGradient16141"
         xlink:href="#linearGradient16142" />
      <linearGradient
         x1="0.029069768"
         y1="0.3671875"
         x2="0.66279072"
         y2="0.359375"
         id="linearGradient7210"
         xlink:href="#linearGradient7207" />
      <linearGradient
         x1="0.67821783"
         y1="0.0078125"
         x2="0.59405941"
         y2="0.9453125"
         id="linearGradient1597"
         xlink:href="#linearGradient1594" />
      <linearGradient
         id="linearGradient4105"
         xlink:href="#linearGradient1598" />
      <radialGradient
         cx="0.5"
         cy="0.5"
         r="0.50943398"
         fx="0.5"
         fy="0.5"
         id="radialGradient1590"
         xlink:href="#linearGradient2829" />
      <linearGradient
         x1="260.04196"
         y1="429.39368"
         x2="260.04196"
         y2="663.51147"
         id="linearGradient4235"
         xlink:href="#linearGradient4232"
         gradientUnits="userSpaceOnUse"
         gradientTransform="scale(1.154701,0.866025)" />
      <linearGradient
         x1="205.66626"
         y1="1082.0519"
         x2="205.20749"
         y2="968.04675"
         id="linearGradient6103"
         xlink:href="#linearGradient6100"
         gradientUnits="userSpaceOnUse"
         gradientTransform="scale(1.484615,0.673575)" />
      <linearGradient
         x1="415.65533"
         y1="79.104546"
         x2="421.31271"
         y2="673.13025"
         id="linearGradient7349"
         xlink:href="#linearGradient7346"
         gradientUnits="userSpaceOnUse"
         gradientTransform="scale(1.006773,0.993272)" />
    </defs>
    <linearGradient
       id="linearGradient3109">
      <stop
         style="stop-color:#ffffff;stop-opacity:0.90588236;"
         offset="0.0000000"
         id="stop3110" />
      <stop
         style="stop-color:#ffffff;stop-opacity:0.17708333;"
         offset="1.0000000"
         id="stop3111" />
    </linearGradient>
    <linearGradient
       id="linearGradient6228">
      <stop
         style="stop-color:#ffffff;stop-opacity:0.0000000;"
         offset="0.0000000"
         id="stop6229" />
      <stop
         style="stop-color:#ffffff;stop-opacity:0.46354166;"
         offset="0.50000000"
         id="stop6231" />
      <stop
         style="stop-color:#ffffff;stop-opacity:0.0000000;"
         offset="1.0000000"
         id="stop6230" />
    </linearGradient>
    <linearGradient
       id="linearGradient9552">
      <stop
         style="stop-color:#001dff;stop-opacity:0.77647060;"
         offset="0.0000000"
         id="stop9554" />
      <stop
         style="stop-color:#003787;stop-opacity:0.22352941;"
         offset="1.0000000"
         id="stop9553" />
    </linearGradient>
    <linearGradient
       id="linearGradient9555">
      <stop
         style="stop-color:#0043d9;stop-opacity:0.75647670;"
         offset="0.0000000"
         id="stop9557" />
      <stop
         style="stop-color:#00006e;stop-opacity:0.65284973;"
         offset="1.0000000"
         id="stop9556" />
    </linearGradient>
    <linearGradient
       id="linearGradient9558">
      <stop
         style="stop-color:#00007a;stop-opacity:1.0000000;"
         offset="0.0000000"
         id="stop9560" />
      <stop
         style="stop-color:#00007a;stop-opacity:0.0000000;"
         offset="1.0000000"
         id="stop9559" />
    </linearGradient>
    <linearGradient
       id="linearGradient4901">
      <stop
         style="stop-color:#ffffff;stop-opacity:0.0000000;"
         offset="0.0000000"
         id="stop4903" />
      <stop
         style="stop-color:#bbffff;stop-opacity:0.40414509;"
         offset="1.0000000"
         id="stop4902" />
    </linearGradient>
    <linearGradient
       id="linearGradient4904">
      <stop
         style="stop-color:#006ce4;stop-opacity:0.24870466;"
         offset="0.0000000"
         id="stop4906" />
      <stop
         style="stop-color:#3b85b3;stop-opacity:0.20725389;"
         offset="1.0000000"
         id="stop4905" />
    </linearGradient>
    <linearGradient
       id="linearGradient4907">
      <stop
         style="stop-color:#ffffff;stop-opacity:0.84536082;"
         offset="0.0000000"
         id="stop4909" />
      <stop
         style="stop-color:#ffffff;stop-opacity:0.0000000;"
         offset="1.0000000"
         id="stop4908" />
    </linearGradient>
    <linearGradient
       id="linearGradient4928">
      <stop
         style="stop-color:#0072fe;stop-opacity:1.0000000;"
         offset="0.0000000"
         id="stop4930" />
      <stop
         style="stop-color:#0000b0;stop-opacity:1.0000000;"
         offset="1.0000000"
         id="stop4929" />
    </linearGradient>
    <linearGradient
       id="linearGradient403">
      <stop
         style="stop-color:#ffffff;stop-opacity:0.37113401;"
         offset="0.0000000"
         id="stop405" />
      <stop
         style="stop-color:#ffffff;stop-opacity:0.0000000;"
         offset="1.0000000"
         id="stop404" />
    </linearGradient>
    <style
       id="style3698"
       type="text/css">
   
    .fil0 {fill:#0093DD}
    .fil2 {fill:#FFFFFF}
    .fil1 {fill:#1F1A17}
   
  </style>
    <style
       id="style3696"
       type="text/css">
   
    .fil0 {fill:#0093DD}
    .fil2 {fill:#FFFFFF}
    .fil1 {fill:#1F1A17}
   
  </style>
    <clipPath
       clipPathUnits="userSpaceOnUse"
       id="clipPath3054">
      <rect
         style="opacity:1;fill:#ff9900;fill-opacity:1;fill-rule:evenodd;stroke:none;stroke-width:10;stroke-linecap:round;stroke-linejoin:miter;stroke-miterlimit:4;stroke-dasharray:none;stroke-dashoffset:0;stroke-opacity:1"
         id="rect3056"
         width="2178.8511"
         height="1000"
         x="-436.25226"
         y="-1000"
         transform="scale(1,-1)" />
    </clipPath>
    <clipPath
       clipPathUnits="userSpaceOnUse"
       id="clipPath3058">
      <rect
         style="opacity:1;fill:#ff9900;fill-opacity:1;fill-rule:evenodd;stroke:none;stroke-width:10;stroke-linecap:round;stroke-linejoin:miter;stroke-miterlimit:4;stroke-dasharray:none;stroke-dashoffset:0;stroke-opacity:1"
         id="rect3060"
         width="2178.8511"
         height="1000"
         x="-436.25226"
         y="-1000"
         transform="scale(1,-1)" />
    </clipPath>
    <clipPath
       clipPathUnits="userSpaceOnUse"
       id="clipPath3062">
      <rect
         style="opacity:1;fill:#ff9900;fill-opacity:1;fill-rule:evenodd;stroke:none;stroke-width:10;stroke-linecap:round;stroke-linejoin:miter;stroke-miterlimit:4;stroke-dasharray:none;stroke-dashoffset:0;stroke-opacity:1"
         id="rect3064"
         width="2178.8511"
         height="1000"
         x="-436.25226"
         y="-1000"
         transform="scale(1,-1)" />
    </clipPath>
    <clipPath
       clipPathUnits="userSpaceOnUse"
       id="clipPath3066">
      <rect
         style="opacity:1;fill:#ff9900;fill-opacity:1;fill-rule:evenodd;stroke:none;stroke-width:10;stroke-linecap:round;stroke-linejoin:miter;stroke-miterlimit:4;stroke-dasharray:none;stroke-dashoffset:0;stroke-opacity:1"
         id="rect3068"
         width="2178.8511"
         height="1000"
         x="-436.25226"
         y="-1000"
         transform="scale(1,-1)" />
    </clipPath>
    <clipPath
       clipPathUnits="userSpaceOnUse"
       id="clipPath3070">
      <rect
         style="opacity:1;fill:#ff9900;fill-opacity:1;fill-rule:evenodd;stroke:none;stroke-width:10;stroke-linecap:round;stroke-linejoin:miter;stroke-miterlimit:4;stroke-dasharray:none;stroke-dashoffset:0;stroke-opacity:1"
         id="rect3072"
         width="2178.8511"
         height="1000"
         x="-436.25226"
         y="-1000"
         transform="scale(1,-1)" />
    </clipPath>
    <clipPath
       clipPathUnits="userSpaceOnUse"
       id="clipPath3074">
      <rect
         style="opacity:1;fill:#ff9900;fill-opacity:1;fill-rule:evenodd;stroke:none;stroke-width:10;stroke-linecap:round;stroke-linejoin:miter;stroke-miterlimit:4;stroke-dasharray:none;stroke-dashoffset:0;stroke-opacity:1"
         id="rect3076"
         width="2178.8511"
         height="1000"
         x="-436.25226"
         y="-1000"
         transform="scale(1,-1)" />
    </clipPath>
    <clipPath
       clipPathUnits="userSpaceOnUse"
       id="clipPath3078">
      <rect
         style="opacity:1;fill:#ff9900;fill-opacity:1;fill-rule:evenodd;stroke:none;stroke-width:10;stroke-linecap:round;stroke-linejoin:miter;stroke-miterlimit:4;stroke-dasharray:none;stroke-dashoffset:0;stroke-opacity:1"
         id="rect3080"
         width="2178.8511"
         height="1000"
         x="-436.25226"
         y="-1000"
         transform="scale(1,-1)" />
    </clipPath>
    <clipPath
       clipPathUnits="userSpaceOnUse"
       id="clipPath3082">
      <rect
         style="opacity:1;fill:#ff9900;fill-opacity:1;fill-rule:evenodd;stroke:none;stroke-width:10;stroke-linecap:round;stroke-linejoin:miter;stroke-miterlimit:4;stroke-dasharray:none;stroke-dashoffset:0;stroke-opacity:1"
         id="rect3084"
         width="2178.8511"
         height="1000"
         x="-436.25226"
         y="-1000"
         transform="scale(1,-1)" />
    </clipPath>
    <linearGradient
       xlink:href="#linearGradient6228"
       id="linearGradient4486"
       gradientUnits="userSpaceOnUse"
       gradientTransform="matrix(1.441023,0,0,1.081123,1.3039804,-99.06361)"
       spreadMethod="pad"
       x1="227.38708"
       y1="414.63464"
       x2="1326.4247"
       y2="1108.5129" />
    <linearGradient
       xlink:href="#linearGradient12401"
       id="linearGradient4488"
       gradientUnits="userSpaceOnUse"
       gradientTransform="matrix(0.951928,0,0,1.636597,266.61954,-99.06361)"
       x1="929.92407"
       y1="365.15329"
       x2="1407.9355"
       y2="550.30981" />
    <linearGradient
       xlink:href="#linearGradient12401"
       id="linearGradient4490"
       gradientUnits="userSpaceOnUse"
       gradientTransform="matrix(-0.951928,0,0,-1.636597,2287.7729,1101.6499)"
       x1="929.92407"
       y1="365.15329"
       x2="1407.9355"
       y2="550.30981" />
    <linearGradient
       xlink:href="#linearGradient1812"
       id="linearGradient4492"
       gradientUnits="userSpaceOnUse"
       gradientTransform="matrix(1.32937,0,0,1.171927,1.3039804,-99.06361)"
       x1="1339.2728"
       y1="626.07275"
       x2="618.57043"
       y2="422.78098" />
    <linearGradient
       xlink:href="#linearGradient4276"
       id="linearGradient4494"
       gradientUnits="userSpaceOnUse"
       gradientTransform="matrix(0.676053,0,0,2.304442,1.3039804,-99.06361)"
       x1="1384.5165"
       y1="128.08214"
       x2="2398.271"
       y2="264.82779" />
    <linearGradient
       xlink:href="#linearGradient1810"
       id="linearGradient4496"
       gradientUnits="userSpaceOnUse"
       gradientTransform="matrix(1.980036,0,0,0.786817,1.3039804,-99.06361)"
       spreadMethod="pad"
       x1="318.57779"
       y1="-62.640854"
       x2="350.99991"
       y2="820.59406" />
    <linearGradient
       xlink:href="#linearGradient3109"
       id="linearGradient4498"
       gradientUnits="userSpaceOnUse"
       gradientTransform="matrix(-1.4433757,0,0,1.081123,1.0016327e-6,-99.063923)"
       x1="-983.55884"
       y1="-9.5417423"
       x2="-932.79236"
       y2="592.2052" />
  </defs>
  <metadata
     id="metadata1311">
    <rdf:RDF>
      <cc:Work
         rdf:about="">
        <dc:format>image/svg+xml</dc:format>
        <dc:type
           rdf:resource="http://purl.org/dc/dcmitype/StillImage" />
      </cc:Work>
    </rdf:RDF>
  </metadata>
  <g
     id="layer1"
     transform="matrix(0.02400007,0,0,0.02400007,-1.3800034e-4,0)">
    <g
       id="g4565"
       transform="matrix(99.999949,0,0,99.999949,0.0139982,0)">
      <g
         id="g4423"
         transform="scale(1,0.89999901)">
        <g
           id="g24651"
           transform="translate(1097.4909,138.29986)" />
        <g
           id="g3166"
           transform="translate(401.47694,630.70616)" />
        <rect
           style="fill:#2073a0;fill-opacity:1;fill-rule:nonzero;stroke:none"
           id="rect15144"
           width="1600"
           height="1199.9993"
           x="-3.8921011e-05"
           y="-99.999611"
           clip-path="url(#clipPath3082)" />
        <rect
           width="1597.392"
           height="1198.4392"
           x="1.3039379"
           y="-99.063576"
           style="fill:url(#linearGradient4486);fill-opacity:1;fill-rule:evenodd;stroke:none;stroke-width:32.0407;stroke-linecap:round;stroke-linejoin:round;stroke-miterlimit:4;stroke-opacity:1"
           id="rect5602"
           clip-path="url(#clipPath3078)" />
        <path
           style="fill:url(#linearGradient4488);fill-opacity:1;fill-rule:evenodd;stroke:none;stroke-width:0.25pt;stroke-linecap:butt;stroke-linejoin:miter;stroke-opacity:1"
           d="M 1454.7903,-99.99985 C 1578.9354,288.38788 1159.5308,696.99883 1137.4178,1099.6878 H 1466.685 C 1326.4318,821.83211 1311.597,507.25836 1598.7349,147.37331 V -99.99985 Z"
           id="path4304"
           clip-path="url(#clipPath3074)" />
        <path
           style="fill:url(#linearGradient4490);fill-opacity:1;fill-rule:evenodd;stroke:none;stroke-width:0.25pt;stroke-linecap:butt;stroke-linejoin:miter;stroke-opacity:1"
           d="M 1036.6838,-99.68775 C 1288.4546,596.33837 1056.3201,910.28516 725.90221,1099.9999 H 1031.809 c 98.0715,-426.01505 293.1793,-795.19886 308.9096,-1199.68765 z"
           id="path4930"
           clip-path="url(#clipPath3070)" />
        <path
           style="fill:url(#linearGradient4492);fill-opacity:1;fill-rule:evenodd;stroke:none;stroke-width:0.25pt;stroke-linecap:butt;stroke-linejoin:miter;stroke-opacity:1"
           d="m 1247.5731,-98.91196 c 224.565,432.3971 -23.7077,766.16258 -293.13852,1198.55206 l -669.685,-0.2711 C 814.74827,599.29821 1371.1315,540.92751 1418.2894,-99.25151 Z"
           id="path1186"
           clip-path="url(#clipPath3066)" />
        <path
           style="fill:url(#linearGradient4494);fill-opacity:1;fill-rule:evenodd;stroke:none;stroke-width:0.25pt;stroke-linecap:butt;stroke-linejoin:miter;stroke-opacity:1"
           d="m 1488.4162,-99.13146 109.663,0.10139 c -96.2597,424.77877 -197.7902,753.0909 0.212,1197.98117 l -271.3599,0.526 C 1105.1687,803.89928 1397.6398,223.87104 1488.4162,-99.13146 Z"
           id="path2436"
           clip-path="url(#clipPath3062)" />
        <path
           style="fill:url(#linearGradient4496);fill-opacity:1;fill-rule:nonzero;stroke:none;stroke-width:1.25;stroke-linecap:round;stroke-linejoin:round;stroke-miterlimit:4;stroke-dashoffset:0;stroke-opacity:1"
           d="M -1.4139601e-4,-99.06357 V 536.73589 C 785.28313,522.23348 796.78622,299.36185 1600.0001,289.68953 v -388.7531 z"
           id="path1356"
           clip-path="url(#clipPath3058)" />
        <path
           d="M 1600,-99.063883 H 0 V 505.77093 c 732.53012,-288.78055 803.21287,256.69379 1600,-3e-5 z"
           style="fill:url(#linearGradient4498);fill-opacity:1;fill-rule:evenodd;stroke:none;stroke-width:32.0407;stroke-linecap:round;stroke-linejoin:round;stroke-miterlimit:4;stroke-opacity:1"
           id="rect2487"
           clip-path="url(#clipPath3054)" />
      </g>
      <g
         id="g4550"
         transform="translate(-0.00207487,-50.001028)">
        <g
           id="g4536">
          <path
             d="m 860.45715,520.35486 h -0.56883 l -0.49774,0.0662 h -0.49773 l -0.49773,0.0662 h -0.42663 l -0.35553,0.0662 -0.35552,0.0662 -0.28442,0.0662 -0.28442,0.0662 -0.28442,0.0662 -0.14221,0.0662 -0.21331,0.13239 -0.14221,0.0662 -0.0711,0.13239 -0.0711,0.13239 -0.0711,0.0662 v 0.13239 l 0.0711,0.13239 0.0711,0.13239 0.0711,0.13239 0.0711,0.13239 0.14221,0.13239 0.21332,0.13239 0.14221,0.19858 0.28442,0.13239 0.21331,0.13239 0.28442,0.19858 0.28442,0.13239 0.35552,0.13239 0.35553,0.19859 0.35552,0.13239 0.35552,0.19858 0.42663,0.19859 0.42663,0.13239 0.49774,0.19858 0.42662,0.13239 0.49774,0.19858 0.49773,0.19859 0.56884,0.13239 0.49773,0.19858 0.56884,0.19859 0.63994,0.13239 1.13768,0.39717 1.27988,0.33097 1.351,0.33098 1.35099,0.33097 1.42209,0.33097 1.4221,0.33098 1.4932,0.26478 1.4932,0.26478 1.4932,0.33097 1.5643,0.19858 1.56431,0.26478 c 4.62181,-3.37593 8.74588,-6.75187 12.51443,-10.06161 -10.38129,2.38301 -20.9759,2.44921 -31.64162,1.52248 z"
             style="font-style:normal;font-variant:normal;font-weight:normal;font-stretch:normal;letter-spacing:normal;word-spacing:normal;text-anchor:start;display:inline;overflow:visible;visibility:visible;fill:#ffffff;fill-opacity:0.25;fill-rule:nonzero;stroke:#ffffff;stroke-width:0;stroke-linecap:butt;stroke-linejoin:miter;stroke-miterlimit:10.433;stroke-dasharray:none;stroke-dashoffset:0;stroke-opacity:0.25;marker:none;marker-start:none;marker-mid:none;marker-end:none"
             id="path2489" />
          <path
             d="m 929.07325,504.4681 1.4221,-1.85346 1.35099,-1.85345 1.27988,-1.91965 1.20878,-1.85346 1.20878,-1.98584 1.13768,-1.91965 1.06657,-1.91965 0.99547,-1.98585 0.92436,-1.98584 0.85326,-1.98585 0.78215,-2.05204 0.78215,-2.05204 0.63995,-1.98584 0.56883,-2.05204 0.42663,-2.11824 0.42663,-2.05204 c -1.70651,7.87719 -6.25722,14.69526 -10.59461,21.91049 -23.8912,13.96711 -2.27535,-8.34055 0,-16.81348 -25.73992,30.11865 -3.55524,18.07119 -4.4796,26.47793 z"
             style="font-style:normal;font-variant:normal;font-weight:normal;font-stretch:normal;letter-spacing:normal;word-spacing:normal;text-anchor:start;display:inline;overflow:visible;visibility:visible;fill:#ffffff;fill-opacity:0.25;fill-rule:nonzero;stroke:#ffffff;stroke-width:0;stroke-linecap:butt;stroke-linejoin:miter;stroke-miterlimit:10.433;stroke-dasharray:none;stroke-dashoffset:0;stroke-opacity:0.25;marker:none;marker-start:none;marker-mid:none;marker-end:none"
             id="path2491" />
          <path
             d="m 954.38655,443.10549 v -0.46337 l 0.0711,-0.52956 v -0.46336 l 0.0711,-0.46336 v -0.46337 -0.46336 l 0.0711,-0.39717 v -0.46336 -0.39717 -0.39717 -0.39717 -0.39717 l 0.0711,-0.39717 v -0.33097 -0.39717 l -0.0711,-0.33098 v -0.33097 -0.33097 -0.33098 -0.33097 -0.26478 -0.33098 l -0.0711,-0.26478 v -0.26478 -0.33097 l -0.0711,-0.26478 v -0.19858 -0.26478 l -0.0711,-0.26478 v -0.19859 l -0.0711,-0.26478 v -0.19858 l -0.0711,-0.19858 v -0.19859 l -0.0711,-0.19858 v -0.19859 l -0.0711,-0.13239 -0.0711,-0.19858 v -0.13239 l -0.0711,-0.19859 -0.0711,-0.13239 v -0.13239 l -0.0711,-0.13239 -0.0711,-0.13239 -0.0711,-0.13239 v -0.0662 l -0.0711,-0.13239 -0.0711,-0.0662 -0.0711,-0.13239 -0.0711,-0.0662 -0.14221,-0.13239 -0.0711,-0.13239 -0.14221,-0.13239 -0.14221,-0.0662 -0.14221,-0.0662 h -0.14221 -0.14221 -0.14221 l -0.14221,0.0662 h -0.21332 l -0.1422,0.13239 -0.14221,0.0662 -0.14221,0.13239 -0.21332,0.13239 -0.14221,0.13239 -0.14221,0.13239 -0.14221,0.19858 -0.21331,0.19859 -0.14221,0.19858 -0.14221,0.26478 -0.14221,0.19859 -0.21331,0.26478 -0.14221,0.26478 -0.14221,0.26478 -0.14221,0.33097 -0.14221,0.26478 -0.14221,0.33097 -0.21332,0.33098 -0.14221,0.33097 -0.1422,0.33098 -0.0711,0.33097 -0.14221,0.33097 -0.14221,0.39717 -0.14221,0.33098 -0.14221,0.39717 -0.21331,0.72814 -0.21332,0.79434 c 2.41757,1.12531 4.33739,15.09242 6.61275,6.4209 z"
             style="font-style:normal;font-variant:normal;font-weight:normal;font-stretch:normal;letter-spacing:normal;word-spacing:normal;text-anchor:start;display:inline;overflow:visible;visibility:visible;fill:#ffffff;fill-opacity:0.25;fill-rule:nonzero;stroke:#ffffff;stroke-width:0;stroke-linecap:butt;stroke-linejoin:miter;stroke-miterlimit:10.433;stroke-dasharray:none;stroke-dashoffset:0;stroke-opacity:0.25;marker:none;marker-start:none;marker-mid:none;marker-end:none"
             id="path2493" />
          <path
             d="m 812.03481,150.39192 1.27989,0.19859 1.27988,0.19858 1.35099,0.19859 1.27989,0.19858 0.56884,0.0662 0.63994,0.13239 0.63994,0.0662 0.56884,0.13239 0.56884,0.0662 0.56884,0.13239 0.49773,0.0662 0.56884,0.13239 0.49773,0.0662 0.42663,0.13239 0.42663,0.13239 0.42663,0.0662 0.42663,0.13239 0.28442,0.13239 0.35552,0.0662 0.28442,0.13239 0.21331,0.13239 0.21332,0.13239 0.0711,0.0662 0.0711,0.0662 0.0711,0.0662 h 0.0711 v 0.0662 l 0.0711,0.0662 v 0.0662 0.0662 0.13239 0.0662 l -0.0711,0.0662 -0.0711,0.0662 c 7.53711,-1.52248 9.17252,-2.91257 -13.58101,-3.50833 z"
             style="font-style:normal;font-variant:normal;font-weight:normal;font-stretch:normal;letter-spacing:normal;word-spacing:normal;text-anchor:start;display:inline;overflow:visible;visibility:visible;fill:#ffffff;fill-opacity:0.25;fill-rule:nonzero;stroke:#ffffff;stroke-width:0;stroke-linecap:butt;stroke-linejoin:miter;stroke-miterlimit:10.433;stroke-dasharray:none;stroke-dashoffset:0;stroke-opacity:0.25;marker:none;marker-start:none;marker-mid:none;marker-end:none"
             id="path2495" />
          <polygon
             transform="matrix(7.1104763,0,0,-6.6194836,-1454.2873,3069.4518)"
             points="320.6,440.37 320.64,440.45 319.97,440.31 "
             style="font-style:normal;font-variant:normal;font-weight:normal;font-stretch:normal;letter-spacing:normal;word-spacing:normal;text-anchor:start;display:inline;overflow:visible;visibility:visible;fill:#ffffff;fill-opacity:0.25;fill-rule:nonzero;stroke:#ffffff;stroke-width:0;stroke-linecap:butt;stroke-linejoin:miter;stroke-miterlimit:10.433;stroke-dasharray:none;stroke-dashoffset:0;stroke-opacity:0.25;marker:none;marker-start:none;marker-mid:none;marker-end:none"
             id="polygon2497" />
          <path
             d="m 1038.2902,451.24745 0.071,1.78726 v 1.72107 l -0.071,1.65487 -0.071,1.65487 -0.071,1.52248 -0.1423,1.58868 -0.2133,1.45628 -0.2133,1.45629 -0.2844,1.39009 -0.2844,1.45629 -0.2844,1.32389 -0.3556,1.3239 -0.711,2.64779 -0.8533,2.5816 -0.9243,2.51541 -0.9955,2.5816 -1.0666,2.5154 -1.1376,2.5816 -1.1377,2.64779 -1.1377,2.78018 -0.5688,1.45629 -0.5689,1.45629 -0.5688,1.45628 -0.5688,1.52249 -11.0213,5.16319 c -9.0303,16.35013 0.8533,10.3264 -5.6173,23.36678 -14.14981,11.71649 -42.80503,36.53955 -51.97754,38.79017 -6.75496,-0.13239 4.4796,-7.34762 5.9728,-10.194 -18.84277,12.04746 -15.14532,18.13738 -44.01385,25.48501 l -0.85326,-1.78726 c -71.24697,31.24396 -170.1537,-30.58201 -168.87381,-114.98043 -0.78215,5.36178 -2.20425,4.03788 -3.76855,6.22231 -3.62635,-43.42381 21.54474,-87.04621 64.06539,-104.78642 41.59628,-19.1965 90.30305,-11.31932 120.09594,14.49667 -16.35409,-19.92465 -48.92007,-41.107 -87.52996,-39.12115 -37.82773,0.59575 -73.1668,22.96961 -84.97019,47.19692 -19.3405,11.38551 -21.61585,43.75478 -30.00621,49.71232 -11.37676,77.71274 21.33143,111.27352 76.65093,150.72564 8.74589,5.49417 2.41756,6.28851 3.62634,10.45879 -18.34502,-8.00958 -35.19685,-20.12323 -49.06228,-34.88468 7.39489,9.92922 15.28752,19.72606 25.52661,27.33846 -17.34956,-5.42797 -40.52972,-39.12114 -47.21356,-40.44504 29.864,49.77852 121.23362,87.31099 169.08712,68.71024 -22.18468,0.72814 -50.27107,0.39717 -75.15773,-8.14197 -10.4524,-5.0308 -24.67336,-15.3572 -22.11358,-17.27685 65.27417,22.63864 132.68148,17.14446 189.20977,-24.95545 14.36312,-10.45879 30.07732,-28.199 34.62802,-28.39759 -6.8261,9.53206 1.1377,4.56745 -4.1241,13.04039 14.2921,-21.51332 -6.1861,-8.80392 14.8609,-37.13531 l 7.7504,9.92923 c -2.9153,-17.87261 23.8201,-39.51832 21.047,-67.71732 6.1151,-8.67152 6.8261,9.26728 0.3556,29.12573 9.0303,-22.04288 2.4175,-25.6174 4.6929,-43.75479 2.4887,6.08993 5.7595,12.57702 7.466,19.06412 -5.9017,-21.31474 6.0439,-35.87761 8.9592,-48.25604 -2.9153,-1.19151 -9.0303,9.39967 -10.4524,-15.75437 0.2133,-10.92215 3.2708,-5.69276 4.4796,-8.40674 -2.3465,-1.19151 -8.3904,-9.59826 -12.0878,-25.61741 2.702,-3.7731 7.1105,9.79684 10.8079,10.3264 -2.3465,-12.7756 -6.3994,-22.50625 -6.5416,-32.30308 -10.5946,-20.5866 -3.7686,2.71399 -12.3723,-8.87011 -11.2345,-32.76644 9.3859,-7.61241 10.808,-22.50624 17.0651,23.10199 26.8065,58.84721 31.2861,73.60865 -3.4131,-18.00499 -8.9592,-35.54662 -15.7142,-52.42631 5.2618,2.05204 -8.3193,-37.1353 6.8261,-11.18692 -16.2119,-55.27269 -69.1139,-106.90466 -117.82063,-131.19817 5.9728,5.097 13.5099,11.45171 10.80792,12.44463 -24.24672,-13.43755 -19.98044,-14.43047 -23.46457,-20.12323 -19.69602,-7.48002 -20.97591,0.59575 -34.05918,0 -37.18779,-18.33597 -44.36938,-16.41632 -78.57077,-27.86803 l 1.56431,6.75188 c -24.67335,-7.6786 -28.72633,2.91257 -55.39061,0 -1.63541,-1.19151 8.53257,-4.23647 16.92293,-5.36178 -23.82009,2.91257 -22.75352,-4.36886 -46.00478,0.79433 5.68838,-3.7731 11.80339,-6.22231 17.9184,-9.39966 -19.4116,1.05911 -46.36031,10.52498 -38.04105,1.91965 -31.71272,13.17277 -87.95659,31.64113 -119.5271,59.17818 l -0.99547,-6.15612 c -14.50537,16.15154 -63.14103,48.25604 -66.98069,69.2398 l -3.91076,0.86053 c -7.466,11.84888 -12.37223,25.28643 -18.34503,37.53247 -9.81246,15.62199 -14.43427,6.02373 -13.01217,8.47294 -19.4116,36.53955 -29.01074,67.25396 -37.33,92.47419 5.9728,8.20816 0.14221,49.57993 2.41756,82.67735 -9.74135,163.56744 123.29566,322.30266 268.6338,358.9746 21.33142,7.08284 52.97304,6.81806 79.99285,7.54621 -31.85493,-8.47294 -35.9079,-4.50125 -66.90958,-14.56287 -22.32689,-9.79683 -27.23312,-20.98376 -43.08948,-33.75936 l 6.25721,10.32639 c -31.00167,-10.2602 -18.06061,-12.64321 -43.3028,-20.12323 l 6.68385,-8.14196 c -10.02577,-0.66195 -26.66428,-15.75438 -31.14388,-24.09492 l -11.02124,0.39716 C 649.91595,753.75785 642.87658,742.8357 643.37431,734.29657 l -3.55523,5.89134 c -4.05298,-6.4209 -48.63566,-56.92756 -25.52661,-45.14488 -4.26629,-3.70691 -10.02578,-5.95753 -16.21189,-16.48251 l 4.69291,-5.03081 c -11.09234,-13.30516 -20.47817,-30.44962 -19.76712,-36.14238 5.9728,7.48002 10.09688,8.87011 14.14985,10.12781 -28.15749,-64.93713 -29.72179,-3.50833 -50.98212,-66.12864 l 4.4796,-0.33097 c -3.48413,-4.83223 -5.54617,-10.12781 -8.31925,-15.29101 l 1.91982,-18.20358 c -20.19375,-21.7781 -5.61727,-92.67277 -2.70198,-131.52914 1.99094,-15.82057 16.92294,-32.63406 28.22859,-59.04579 l -6.89716,-1.12532 c 13.15438,-21.38093 75.22884,-85.98709 104.02627,-82.67735 13.93653,-16.28393 -2.77309,0 -5.47507,-4.10408 30.57505,-29.52289 40.17419,-20.85137 60.86568,-26.14696 22.25579,-12.31224 -19.12718,4.83223 -8.60368,-4.69983 38.53879,-9.13489 27.30423,-20.78518 77.5042,-25.41882 5.33285,2.78019 -12.30113,4.30267 -16.70962,7.94338 32.06824,-14.62906 101.5376,-11.25312 146.61802,8.14197 52.3331,22.70483 111.13678,90.02497 113.41208,153.37343 l 2.6309,0.59576 c -1.2799,25.22023 4.1952,54.27976 -5.3329,81.02248 z"
             style="font-style:normal;font-variant:normal;font-weight:normal;font-stretch:normal;letter-spacing:normal;word-spacing:normal;text-anchor:start;display:inline;overflow:visible;visibility:visible;fill:#ffffff;fill-opacity:0.25;fill-rule:nonzero;stroke:#ffffff;stroke-width:0;stroke-linecap:butt;stroke-linejoin:miter;stroke-miterlimit:10.433;stroke-dasharray:none;stroke-dashoffset:0;stroke-opacity:0.25;marker:none;marker-start:none;marker-mid:none;marker-end:none"
             id="path2499" />
          <path
             d="m 721.02071,536.70498 -1.77761,8.34055 c 8.39036,10.59118 15.07421,22.10908 25.73992,30.38343 -7.67931,-13.96711 -13.4388,-19.79225 -23.96231,-38.72398 z"
             style="font-style:normal;font-variant:normal;font-weight:normal;font-stretch:normal;letter-spacing:normal;word-spacing:normal;text-anchor:start;display:inline;overflow:visible;visibility:visible;fill:#ffffff;fill-opacity:0.25;fill-rule:nonzero;stroke:#ffffff;stroke-width:0;stroke-linecap:butt;stroke-linejoin:miter;stroke-miterlimit:10.433;stroke-dasharray:none;stroke-dashoffset:0;stroke-opacity:0.25;marker:none;marker-start:none;marker-mid:none;marker-end:none"
             id="path2501" />
          <path
             d="m 740.85894,535.97684 -0.78215,-0.86053 -0.78215,-0.92673 -0.71105,-0.86053 -0.71105,-0.92673 -0.71104,-0.99292 -0.63995,-0.92673 -0.63994,-0.99292 -0.56884,-0.92673 -0.56884,-1.05912 -0.56883,-0.99292 -1.13768,-1.98584 -1.06657,-2.05204 -1.13768,-2.05204 c 2.84419,9.66444 8.60368,17.8726 13.93654,26.34554 z"
             style="font-style:normal;font-variant:normal;font-weight:normal;font-stretch:normal;letter-spacing:normal;word-spacing:normal;text-anchor:start;display:inline;overflow:visible;visibility:visible;fill:#ffffff;fill-opacity:0.25;fill-rule:nonzero;stroke:#ffffff;stroke-width:0;stroke-linecap:butt;stroke-linejoin:miter;stroke-miterlimit:10.433;stroke-dasharray:none;stroke-dashoffset:0;stroke-opacity:0.25;marker:none;marker-start:none;marker-mid:none;marker-end:none"
             id="path2503" />
          <path
             d="m 1092.1165,464.88359 -1.8488,4.36886 c -3.413,22.77102 -10.8079,45.27726 -22.2557,66.19483 12.5855,-22.04288 20.6914,-46.1378 24.1045,-70.56369 z"
             style="font-style:normal;font-variant:normal;font-weight:normal;font-stretch:normal;letter-spacing:normal;word-spacing:normal;text-anchor:start;display:inline;overflow:visible;visibility:visible;fill:#ffffff;fill-opacity:0.25;fill-rule:nonzero;stroke:#ffffff;stroke-width:0;stroke-linecap:butt;stroke-linejoin:miter;stroke-miterlimit:10.433;stroke-dasharray:none;stroke-dashoffset:0;stroke-opacity:0.25;marker:none;marker-start:none;marker-mid:none;marker-end:none"
             id="path2505" />
          <path
             d="m 814.59458,144.63297 0.78215,-0.26478 0.85326,-0.19858 0.85326,-0.26478 0.92436,-0.19859 0.85326,-0.13239 0.92436,-0.19858 0.92436,-0.13239 0.92436,-0.13239 1.99094,-0.19858 1.91983,-0.19859 1.99093,-0.13239 1.99093,-0.0662 4.05297,-0.26478 1.99094,-0.0662 1.99093,-0.13239 1.91983,-0.19858 1.91983,-0.19859 0.85326,-0.13239 0.92436,-0.13239 0.92436,-0.13239 0.85326,-0.19858 c -11.9456,0.99292 -23.8201,1.52248 -35.55239,2.91257 z"
             style="font-style:normal;font-variant:normal;font-weight:normal;font-stretch:normal;letter-spacing:normal;word-spacing:normal;text-anchor:start;display:inline;overflow:visible;visibility:visible;fill:#ffffff;fill-opacity:0.25;fill-rule:nonzero;stroke:#ffffff;stroke-width:0;stroke-linecap:butt;stroke-linejoin:miter;stroke-miterlimit:10.433;stroke-dasharray:none;stroke-dashoffset:0;stroke-opacity:0.25;marker:none;marker-start:none;marker-mid:none;marker-end:none"
             id="path2507" />
          <path
             d="m 511.26166,294.76286 0.0711,0.79434 0.0711,0.79434 v 0.79433 0.72815 0.72814 0.72814 l -0.0711,0.66195 -0.0711,0.72814 -0.0711,0.66195 -0.0711,0.66195 -0.14221,0.59575 -0.1422,0.66195 -0.14221,0.59576 -0.14221,0.52956 -0.14221,0.59575 -0.21332,0.52956 -0.14221,0.52956 -0.21331,0.52956 -0.21332,0.46336 -0.14221,0.46336 -0.21331,0.46337 -0.21331,0.46336 -0.21332,0.39717 -0.14221,0.39717 -0.21331,0.39717 -0.21332,0.33097 -0.21331,0.33098 -0.14221,0.33097 -0.21331,0.33097 -0.14221,0.26478 -0.14221,0.26478 -0.14221,0.19859 -0.14221,0.19858 -0.14221,0.19859 -0.14221,0.19858 -0.0711,0.13239 -0.0711,0.13239 -0.0711,0.13239 -0.0711,0.0662 v 0.0662 0.0662 0 0 h 0.0711 l 0.14221,-0.0662 0.0711,-0.0662 0.14221,-0.13238 0.21331,-0.13239 0.14221,-0.13239 0.28442,-0.13239 0.0711,-0.13239 0.1422,-0.0662 0.14221,-0.13239 0.21332,-0.0662 0.14221,-0.13239 0.14221,-0.13239 0.21331,-0.13239 0.14221,-0.13239 0.21332,-0.13239 0.21331,-0.13239 0.21331,-0.19859 0.21332,-0.13239 0.28442,-0.19858 0.21331,-0.13239 0.28442,-0.19858 0.28442,-0.19859 0.21331,-0.19858 0.28442,-0.19859 0.35553,-0.19858 0.28442,-0.19859 0.35552,-0.19858 0.28442,-0.19859 0.35552,-0.26477 0.35553,-0.19859 0.35552,-0.26478 0.35552,-0.26478 0.42663,-0.26478 0.42663,-0.26478 c 9.24362,-19.52747 -3.69745,-5.36178 -3.55524,-12.51082 z"
             style="font-style:normal;font-variant:normal;font-weight:normal;font-stretch:normal;letter-spacing:normal;word-spacing:normal;text-anchor:start;display:inline;overflow:visible;visibility:visible;fill:#ffffff;fill-opacity:0.25;fill-rule:nonzero;stroke:#ffffff;stroke-width:0;stroke-linecap:butt;stroke-linejoin:miter;stroke-miterlimit:10.433;stroke-dasharray:none;stroke-dashoffset:0;stroke-opacity:0.25;marker:none;marker-start:none;marker-mid:none;marker-end:none"
             id="path2509" />
          <path
             d="m 490.8546,374.19666 0.35552,-1.05911 0.35552,-1.05912 0.35553,-0.99292 0.28442,-0.99293 0.28442,-0.92672 0.28442,-0.92673 0.28441,-0.92673 0.21332,-0.92673 0.28442,-0.86053 0.21331,-0.86053 0.21332,-0.79434 0.21331,-0.86053 0.14221,-0.79434 0.21331,-0.79434 0.35553,-1.52248 0.28442,-1.45629 0.28442,-1.39009 0.28442,-1.39009 0.28441,-1.3239 0.28442,-1.32389 0.21332,-1.25771 0.28442,-1.2577 0.28442,-1.2577 c -11.09235,13.17277 -5.11955,16.01915 -6.25722,24.95545 z"
             style="font-style:normal;font-variant:normal;font-weight:normal;font-stretch:normal;letter-spacing:normal;word-spacing:normal;text-anchor:start;display:inline;overflow:visible;visibility:visible;fill:#ffffff;fill-opacity:0.25;fill-rule:nonzero;stroke:#ffffff;stroke-width:0;stroke-linecap:butt;stroke-linejoin:miter;stroke-miterlimit:10.433;stroke-dasharray:none;stroke-dashoffset:0;stroke-opacity:0.25;marker:none;marker-start:none;marker-mid:none;marker-end:none"
             id="path2511" />
        </g>
      </g>
    </g>
  </g>
</svg>
